<?xml version="1.0" encoding="UTF-8"?>
<svg version="1.1" xmlns="http://www.w3.org/2000/svg" width="512" height="512">
<path d="M0 0 C0.95349889 -0.00630794 1.90699779 -0.01261588 2.88939059 -0.01911497 C4.47164638 -0.02190797 4.47164638 -0.02190797 6.08586693 -0.02475739 C7.2008246 -0.03055077 8.31578227 -0.03634416 9.46452653 -0.0423131 C13.22619099 -0.0604493 16.98784035 -0.07126666 20.7495327 -0.08200836 C22.75217774 -0.09033396 24.75482279 -0.09866554 26.75746568 -0.10749274 C36.28783386 -0.14942777 45.81822724 -0.17661086 55.34865379 -0.20114899 C56.10073488 -0.20312389 56.85281597 -0.20509879 57.62768739 -0.20713353 C72.55922638 -0.24629714 87.49077368 -0.28000562 102.42234802 -0.30221558 C105.70621439 -0.30718496 108.99008064 -0.31222927 112.27394676 -0.31735992 C113.4982452 -0.31926593 113.4982452 -0.31926593 114.74727695 -0.32121044 C127.96591652 -0.34256549 141.1843073 -0.39155436 154.40282173 -0.45160407 C167.97211003 -0.51273916 181.54127002 -0.54740557 195.11069429 -0.55668879 C202.73021506 -0.56259917 210.34931461 -0.58034621 217.9686985 -0.62807465 C224.45879832 -0.6686914 230.9484082 -0.6855476 237.43862946 -0.67142183 C240.74937884 -0.66495755 244.05886689 -0.67360003 247.36950111 -0.70529556 C250.96266587 -0.73788073 254.55322315 -0.72727915 258.1464138 -0.70590973 C259.18786667 -0.7256175 260.22931953 -0.74532527 261.30233157 -0.76563025 C267.84714574 -0.66734419 271.18277127 0.66557634 275.81550741 5.32329082 C276.37043009 5.92366319 276.92535277 6.52403555 277.49709129 7.14260101 C278.34669646 7.94975681 279.19630163 8.75691261 280.07165241 9.58852768 C280.81516232 10.33036175 281.55867224 11.07219582 282.32471275 11.8365097 C283.19250862 12.70004059 284.06030449 13.56357147 284.9543972 14.45326996 C286.33956032 15.83911285 286.33956032 15.83911285 287.75270653 17.25295258 C288.75698073 18.25422812 289.76145738 19.25530063 290.766119 20.25618744 C293.47051932 22.95182479 296.17173601 25.65062987 298.87207866 28.35033131 C300.56073911 30.03827794 302.25011084 31.72550932 303.93973541 33.41249084 C309.8372697 39.30080395 315.73224623 45.19166355 321.62477684 51.08498383 C327.11553414 56.57634411 332.61187013 62.06207694 338.11079448 67.54525781 C342.83976058 72.2611668 347.56488214 76.98090431 352.28700405 81.70366645 C355.10432064 84.52123815 357.92317303 87.33723044 360.7458992 90.14938354 C363.3941534 92.78798527 366.03760224 95.43130671 368.67738342 98.0783844 C369.64759174 99.04964145 370.61951847 100.01918537 371.59325981 100.98690033 C372.91956502 102.30552512 374.23915117 103.63089795 375.55835533 104.95662689 C376.29922606 105.69695286 377.0400968 106.43727882 377.80341816 107.20003891 C380.90064798 110.75241343 380.62524874 114.11318547 380.63410568 118.63540459 C380.63675751 119.300899 380.63940934 119.9663934 380.64214152 120.65205431 C380.64984432 122.89788987 380.65039406 125.14367084 380.65099144 127.38951874 C380.65500539 129.00959206 380.6594435 130.62966437 380.664271 132.24973547 C380.67624939 136.71412215 380.68188785 141.17849801 380.68645215 145.64289761 C380.69240326 150.45280862 380.70401414 155.26270667 380.71474266 160.07260895 C380.73927502 171.69327883 380.75389353 183.31395301 380.76680273 194.93464082 C380.77051357 198.21507939 380.77448687 201.49551753 380.77855539 204.77595568 C380.80378701 225.13478137 380.82584616 245.49360772 380.83828354 265.8524456 C380.84121336 270.56895576 380.84417501 275.2854659 380.84718895 280.00197601 C380.847935 281.17427956 380.84868105 282.34658311 380.84944971 283.55441101 C380.86211244 302.55924266 380.89534769 321.56398094 380.93699078 340.5687689 C380.97936662 360.06725263 381.00297339 379.56568849 381.0082041 399.06421816 C381.01162279 410.01742546 381.02343205 420.97048676 381.05630684 431.92364883 C381.08424853 441.24859888 381.09533252 450.573373 381.08411138 459.89836167 C381.07890995 464.65851889 381.08190745 469.41830736 381.10657692 474.17841148 C381.12895931 478.53342387 381.12841606 482.88780026 381.10937305 487.24282296 C381.10655751 488.82088238 381.11225722 490.39898393 381.12718599 491.97697525 C381.14620919 494.11813576 381.13456414 496.25700879 381.11512375 498.39811516 C381.11648028 499.58843106 381.11783681 500.77874696 381.11923444 502.00513303 C380.31058861 506.08313407 378.64931 507.52042235 375.49709129 510.14260101 C371.94615054 512.50989485 370.45555581 512.39547713 366.2441349 512.40266323 C364.92575512 512.40972882 363.60737534 512.41679441 362.24904466 512.42407411 C360.77705941 512.42182252 359.30507446 512.41937599 357.83308983 512.41675568 C356.27631235 512.42120559 354.71953713 512.42651881 353.16276526 512.4326244 C348.87324535 512.44684472 344.58379775 512.44846693 340.29425764 512.44802749 C335.67244108 512.44967217 331.05065462 512.46273216 326.42885399 512.47422028 C316.3173143 512.49709703 306.20579557 512.50499382 296.09423351 512.51004672 C289.78289603 512.51330076 283.47156466 512.51982147 277.16023064 512.52704811 C259.69286991 512.54661784 242.22551487 512.56301976 224.75814247 512.56592464 C223.63975172 512.56611221 222.52136096 512.56629978 221.36907957 512.56649304 C219.10172828 512.56685929 216.83437699 512.56722299 214.56702569 512.56758415 C212.87870211 512.56785837 212.87870211 512.56785837 211.15627098 512.56813812 C210.02935127 512.56831867 208.90243157 512.56849922 207.74136278 512.56868524 C189.4782923 512.57222741 171.2153397 512.5992508 152.95231012 512.63663601 C134.21091934 512.67469403 115.46958709 512.69408194 96.72815681 512.69438416 C86.20190055 512.69496931 75.67578488 512.70349829 65.14956474 512.73238182 C56.18661409 512.75686226 47.22385528 512.76420122 38.26088026 512.74913429 C33.68679995 512.74195159 29.11309871 512.74288116 24.53906059 512.76554489 C20.35169741 512.7860941 16.16500571 512.78357294 11.97765014 512.76267005 C10.46281545 512.75916731 8.94793271 512.76411836 7.43316105 512.77837449 C-5.29033707 512.8904029 -5.29033707 512.8904029 -9.88865471 509.72918034 C-13.02819286 506.62287756 -13.46606692 506.1243154 -13.63055921 501.74112827 C-13.63697115 500.23299689 -13.63774167 498.72483599 -13.63433647 497.21669483 C-13.63638911 496.38411609 -13.63844174 495.55153735 -13.64055657 494.69372895 C-13.64625994 491.87347457 -13.64476524 489.05326851 -13.6433506 486.23300934 C-13.64593233 484.20274492 -13.64894495 482.17248101 -13.652354 480.14221781 C-13.66044992 474.53927239 -13.66221501 468.93633975 -13.66295147 463.33338916 C-13.66479755 457.29982906 -13.67234265 451.26627567 -13.67908669 445.23271942 C-13.69339897 431.33927541 -13.69919912 417.44583451 -13.70377863 403.55238498 C-13.70611308 396.68909402 -13.70971558 389.8258039 -13.71347401 382.9625136 C-13.7263113 359.47613316 -13.73703006 335.9897532 -13.74047661 312.50336933 C-13.74069824 311.02841865 -13.74092003 309.55346798 -13.74114196 308.0785173 C-13.7413626 306.59996685 -13.74158308 305.1214164 -13.74180341 303.64286596 C-13.74224597 300.67655043 -13.74269308 297.7102349 -13.74314308 294.74391937 C-13.74325247 294.00844301 -13.74336186 293.27296665 -13.74347457 292.51520312 C-13.74710539 268.66609162 -13.76302546 244.81701051 -13.78633345 220.96791064 C-13.81092152 195.76298099 -13.82464899 170.5580687 -13.82584453 145.3531267 C-13.82601598 142.58694915 -13.82623141 139.82077159 -13.82647896 137.05459404 C-13.82653473 136.37346581 -13.8265905 135.69233759 -13.82664795 134.99056912 C-13.82779934 124.02187632 -13.83882886 113.05321467 -13.85336601 102.0845324 C-13.8677223 91.06180647 -13.87072013 80.03911212 -13.86292604 69.01637719 C-13.85901044 63.04294586 -13.85999341 57.06961947 -13.87398338 51.09620094 C-13.88666788 45.6303204 -13.88557287 40.16462423 -13.87339267 34.69874414 C-13.87142618 32.71887916 -13.87455773 30.73900135 -13.88323703 28.75915442 C-13.89427428 26.07178201 -13.88688043 23.38506669 -13.8748455 20.6977129 C-13.8824407 19.92573139 -13.89003589 19.15374987 -13.89786124 18.35837498 C-13.8385075 12.23570774 -12.55804854 7.50912567 -8.44040871 2.76760101 C-5.48327339 0.287423 -3.78202267 0.01561172 0 0 Z " fill="#E8E8E0" transform="translate(72.50290870666504,-0.14260101318359375)"/>
<path d="M0 0 C130.02 0 260.04 0 394 0 C394 49.17 394 98.34 394 149 C386.7518904 156.2481096 386.7518904 156.2481096 379.74704361 156.26006222 C378.42866383 156.26712781 377.11028405 156.2741934 375.75195336 156.2814731 C374.27996812 156.27922151 372.80798317 156.27677498 371.33599854 156.27415466 C369.77922105 156.27860457 368.22244584 156.2839178 366.66567397 156.29002339 C362.37615406 156.30424371 358.08670646 156.30586592 353.79716635 156.30542648 C349.17534979 156.30707116 344.55356333 156.32013115 339.9317627 156.33161926 C329.82022301 156.35449602 319.70870427 156.36239281 309.59714222 156.36744571 C303.28580474 156.37069974 296.97447337 156.37722046 290.66313934 156.3844471 C273.19577861 156.40401683 255.72842358 156.42041875 238.26105118 156.42332363 C237.14266042 156.4235112 236.02426967 156.42369877 234.87198828 156.42389202 C232.60463699 156.42425828 230.33728569 156.42462198 228.0699344 156.42498314 C226.38161082 156.42525735 226.38161082 156.42525735 224.65917969 156.42553711 C223.53225998 156.42571766 222.40534028 156.42589821 221.24427149 156.42608423 C202.98120101 156.4296264 184.71824841 156.45664979 166.45521882 156.494035 C147.71382805 156.53209302 128.9724958 156.55148093 110.23106551 156.55178314 C99.70480926 156.55236829 89.17869358 156.56089727 78.65247345 156.58978081 C69.6895228 156.61426125 60.72676399 156.62160021 51.76378897 156.60653328 C47.18970866 156.59935058 42.61600742 156.60028015 38.0419693 156.62294388 C33.85460612 156.64349308 29.66791442 156.64097192 25.48055884 156.62006903 C23.96572415 156.6165663 22.45084141 156.62151735 20.93606976 156.63577347 C8.21257164 156.74780189 8.21257164 156.74780189 3.614254 153.58657932 C1 151 1 151 0 149 C0 99.83 0 50.66 0 0 Z " fill="#0296E6" transform="translate(59,356)"/>
<path d="M0 0 C4.08751337 3.50358289 7.94209015 6.81701355 11.71409607 10.58711243 C12.58196243 11.45215897 13.4498288 12.31720551 14.34399414 13.20846558 C15.27260254 14.13909821 16.20121094 15.06973083 17.15795898 16.02856445 C18.16369866 17.03294676 19.16965043 18.03711673 20.17579651 19.04109192 C22.88837114 21.7491356 25.59780706 24.4602988 28.30652499 27.17219949 C31.1450734 30.01328981 33.98607225 32.85192811 36.82667542 35.69096375 C41.58864173 40.45111549 46.3485057 45.2133618 51.10717773 49.97680664 C56.61482172 55.48991065 62.12608424 60.99937768 67.63920349 66.50700599 C72.3757511 71.2390245 77.11035845 75.9729777 81.84333092 80.70857209 C84.66917623 83.53597889 87.49569886 86.36269967 90.3239727 89.18767738 C92.97660894 91.83743725 95.62681051 94.48960779 98.27510643 97.14370537 C99.24983486 98.11976185 100.22542598 99.09495764 101.20191574 100.06925201 C102.52850791 101.39313496 103.8517524 102.72036997 105.17478943 104.04780579 C106.28942645 105.16300834 106.28942645 105.16300834 107.42658138 106.30074024 C109 108 109 108 109 109 C73.03 109 37.06 109 0 109 C0 73.03 0 37.06 0 0 Z " fill="#D9D7CA" transform="translate(343,1)"/>
<path d="M0 0 C2.07303664 3.31685862 2.62453226 5.2195253 2.35546875 9.06640625 C1.49092935 12.54565017 -0.25669171 13.98608141 -3.125 16 C-5.45317964 16.36760731 -7.7868385 16.70241581 -10.125 17 C-12.4431362 18.89111111 -13.79414015 20.33828031 -15.125 23 C-15.2228438 24.46372279 -15.26049205 25.93170603 -15.2668457 27.39868164 C-15.27388016 28.3104567 -15.28091461 29.22223175 -15.28816223 30.16163635 C-15.29232651 31.15114792 -15.29649078 32.14065948 -15.30078125 33.16015625 C-15.32399441 35.25456718 -15.34811234 37.34896823 -15.37304688 39.44335938 C-15.40805112 42.74575251 -15.43743991 46.0477864 -15.45092773 49.3503418 C-15.46649301 52.53739197 -15.50677458 55.72338784 -15.55078125 58.91015625 C-15.54887283 59.8854982 -15.54696442 60.86084015 -15.54499817 61.86573792 C-15.71583634 71.53987323 -19.21331298 79.73747819 -25.875 86.875 C-26.2875 87.24625 -26.7 87.6175 -27.125 88 C-25.33984793 91.78383907 -23.05840029 95.07185688 -20.66015625 98.48828125 C-16.46195615 105.3570921 -15.69351694 110.5904862 -15.71875 118.53515625 C-15.70791382 119.53203964 -15.69707764 120.52892303 -15.68591309 121.55601501 C-15.64025256 125.79681895 -15.62857909 130.03755885 -15.61376953 134.27856445 C-15.59804964 137.38514784 -15.56504953 140.49122541 -15.53125 143.59765625 C-15.53427124 144.550923 -15.53729248 145.50418976 -15.54040527 146.48634338 C-15.4815284 151.71486209 -15.13146024 155.51363132 -12.125 160 C-9.80811449 161.20453511 -9.80811449 161.20453511 -7.1875 161.625 C-4.19657033 162.39347244 -2.14636457 162.98677431 0.5 164.625 C2.58198285 168.22115219 2.84169521 171.96262589 1.875 176 C-0.18796347 178.75861394 -1.39664523 179.84514451 -4.7890625 180.56640625 C-13.14371237 180.55538428 -19.52859149 178.99213929 -25.9375 173.42578125 C-32.84999056 166.01213513 -34.71285925 157.9290786 -34.62890625 148.05078125 C-34.63832748 147.03453171 -34.64774872 146.01828217 -34.65745544 144.97123718 C-34.68593135 141.75144896 -34.68918922 138.5324035 -34.6875 135.3125 C-34.69111381 132.08199433 -34.70068452 128.85202219 -34.72825623 125.62162781 C-34.74498011 123.61942782 -34.74797129 121.61705177 -34.73524475 119.61482239 C-34.78062032 113.6063603 -35.3668525 109.03028472 -39.58984375 104.390625 C-43.98425748 100.98699421 -46.48125596 99.13045588 -52.0625 98.6875 C-55.31960104 98.32221764 -56.26540976 97.90346829 -59.125 95.9375 C-61.36832865 92.64261105 -61.8923899 90.84064997 -61.58984375 86.9296875 C-60.71194888 83.28531719 -59.21139749 82.05759833 -56.125 80 C-53.3555282 79.34761683 -50.5947839 78.92366736 -47.78125 78.50390625 C-43.46432297 77.6849598 -40.53799035 76.0435867 -38.01499939 72.3946228 C-34.87787004 66.6492783 -34.59362945 61.7509134 -34.69140625 55.2890625 C-34.68180012 53.21874925 -34.6720294 51.14843677 -34.66210938 49.078125 C-34.67069349 45.85049726 -34.68751328 42.62306988 -34.7097168 39.39550781 C-34.72432942 36.25547142 -34.70892216 33.11656009 -34.69140625 29.9765625 C-34.70788712 29.02520416 -34.72436798 28.07384583 -34.74134827 27.09365845 C-34.68060658 18.84360144 -32.07501486 12.49343865 -26.75 6.1875 C-19.11770592 -0.17274507 -9.7312126 -6.22797606 0 0 Z " fill="#0296E5" transform="translate(194.125,112)"/>
<path d="M0 0 C9.50187612 3.37385457 15.33600217 9.20813943 20.09619141 18.03198242 C21.45549182 22.49578985 21.27817229 26.84773282 21.2734375 31.48828125 C21.29372931 33.57747929 21.31458015 35.66667196 21.3359375 37.75585938 C21.35850745 41.03414449 21.37499949 44.312217 21.38085938 47.59057617 C21.39041789 50.76519778 21.42423733 53.93887318 21.4609375 57.11328125 C21.45589203 58.08437332 21.45084656 59.05546539 21.44564819 60.0559845 C21.54480467 66.96557987 22.78871012 72.76066392 27.7890625 77.8046875 C32.41919864 80.50395836 36.52323689 81.59685276 41.7890625 82.49609375 C44 83 44 83 46.625 84.625 C48.62292567 88.07596252 48.83504031 91.1815884 48 95 C45.90846782 98.31760277 44.27163609 99.70045047 40.4296875 100.60546875 C38.50691688 100.91195944 36.58235676 101.20741365 34.65625 101.4921875 C29.50101959 102.47774625 26.84129759 104.81095193 23.87133789 109.00854492 C21.33582686 113.61697176 21.45006797 118.01876923 21.49609375 123.17578125 C21.48667252 124.1409819 21.47725128 125.10618256 21.46754456 126.10063171 C21.43900304 129.17147233 21.4358112 132.24153786 21.4375 135.3125 C21.4338751 138.37263729 21.42413774 141.43221171 21.39674377 144.49223328 C21.38015066 146.3899588 21.37692301 148.28786849 21.38975525 150.18562317 C21.31149421 160.16336229 18.98788957 168.65506498 12 176 C5.5602433 181.09814072 -0.41045687 182.49544461 -8.5 182.30859375 C-11 182 -11 182 -13.625 180.4375 C-15.51234919 177.09174461 -16.06654582 174.85965765 -16 171 C-13.9075403 167.2480033 -12.62613369 165.54807685 -8.54296875 164.171875 C-6.81006401 163.73547732 -5.0627008 163.35186033 -3.3046875 163.03125 C0.1962004 161.46475101 0.63127298 159.55423202 2 156 C2.41327117 152.5531674 2.39364727 149.13613906 2.37109375 145.66796875 C2.38847915 143.6321598 2.4060635 141.59635255 2.42382812 139.56054688 C2.43388165 136.37456078 2.43750064 133.18868682 2.43579102 130.00268555 C2.43938111 126.91161324 2.46679927 123.82138889 2.49609375 120.73046875 C2.48791122 119.7895488 2.4797287 118.84862885 2.47129822 117.87919617 C2.56268437 109.67530586 4.90186788 102.9945144 10.25 96.6875 C12.83301412 93.63775313 13 93.30519808 13 89 C11.81043264 87.57912788 10.61484744 86.16237316 9.375 84.78515625 C6.88191555 81.54839604 5.53328493 77.75805129 4 74 C3.505 73.01 3.505 73.01 3 72 C2.89206829 70.51540713 2.84377815 69.02625162 2.82641602 67.5378418 C2.81292618 66.61315598 2.79943634 65.68847015 2.78553772 64.73576355 C2.77509933 63.73370377 2.76466095 62.73164398 2.75390625 61.69921875 C2.72096405 59.58658446 2.68775247 57.47395435 2.65429688 55.36132812 C2.60689849 52.0235486 2.56247982 48.68578562 2.52319336 45.34790039 C2.48344346 42.13149065 2.43190034 38.91543373 2.37890625 35.69921875 C2.36628502 34.20523811 2.36628502 34.20523811 2.35340881 32.68107605 C2.32881323 26.08067077 2.32881323 26.08067077 0 20 C-2.23335172 19.14674562 -2.23335172 19.14674562 -4.8125 19 C-8.45098387 18.42079128 -9.98784613 18.00826463 -13.125 15.875 C-15.24131338 12.62998615 -15.75763861 10.75082965 -15.46875 6.9375 C-13.57436954 -0.8926059 -6.65638906 -1.20586758 0 0 Z " fill="#0297E5" transform="translate(322,110)"/>
<path d="M0 0 C-1.22527029 4.05281712 -2.69880494 7.44360764 -5 11 C-6.28390625 10.76023437 -6.28390625 10.76023437 -7.59375 10.515625 C-15.025024 9.39070738 -23.65948212 8.32803946 -30 13 C-32.22427897 14.92770844 -32.91927557 16.18976589 -33.2109375 19.1171875 C-33.3265977 24.67062922 -33.3265977 24.67062922 -32 30 C-30.69466693 30.71994986 -29.35409998 31.37659365 -28 32 C-24.39823229 33.81999436 -20.82201134 35.68484404 -17.25 37.5625 C-16.28578125 38.05041016 -15.3215625 38.53832031 -14.328125 39.04101562 C-7.20260711 42.8216063 -0.10588117 47.60156435 2.94189453 55.41455078 C3.51736987 57.62935045 3.81278071 59.72080867 4 62 C4.07992187 62.680625 4.15984375 63.36125 4.2421875 64.0625 C4.68780537 70.77298089 1.76344563 75.29185136 -1.75 80.6875 C-7.290734 86.38214328 -14.01143812 89.69652247 -21.953125 90.30078125 C-23.38529552 90.31981507 -24.81774317 90.32322552 -26.25 90.3125 C-27.37281372 90.30730347 -27.37281372 90.30730347 -28.51831055 90.30200195 C-35.75619123 90.16042015 -43.63096736 89.35685797 -49 84 C-49.171875 81.51953125 -49.171875 81.51953125 -48.75 78.8125 C-48.62109375 77.91144531 -48.4921875 77.01039063 -48.359375 76.08203125 C-48.18148438 75.05142578 -48.18148438 75.05142578 -48 74 C-44.24826099 72.74942033 -43.29036602 73.48952814 -39.6875 74.9375 C-32.45068116 77.46115372 -24.29771754 78.80122396 -16.8515625 76.26953125 C-14.48251716 74.85388221 -13.06476718 73.09855875 -11.5625 70.8125 C-10.75695348 66.78476741 -10.66576651 62.91553949 -12 59 C-16.67224964 53.09770913 -23.53775326 50.18558149 -30.07617188 46.72460938 C-37.56217223 42.61938337 -44.7635497 37.84696916 -48 29.625 C-49.87559226 22.50265291 -50.20693512 15.4817368 -46.45703125 8.94921875 C-35.30411508 -5.97117044 -16.44248864 -8.22124432 0 0 Z " fill="#F9FCFE" transform="translate(353,395)"/>
<path d="M0 0 C-1.22527029 4.05281712 -2.69880494 7.44360764 -5 11 C-5.49757813 10.84144531 -5.99515625 10.68289063 -6.5078125 10.51953125 C-9.95651324 9.80060147 -13.36709923 9.73577386 -16.875 9.6875 C-17.56980469 9.65849609 -18.26460938 9.62949219 -18.98046875 9.59960938 C-24.16966932 9.53608809 -27.03103714 10.71227703 -31 14 C-33.00555847 17.0083377 -33.33663294 17.87708649 -33.4375 21.3125 C-33.47746094 22.05113281 -33.51742187 22.78976562 -33.55859375 23.55078125 C-32.47335378 28.30914113 -29.58684947 30.99115814 -25.60717773 33.52124023 C-22.76579494 35.09566743 -19.8970632 36.59311258 -17 38.0625 C-5.12097277 44.13417556 -5.12097277 44.13417556 -1 49 C-0.47792969 49.5878125 0.04414063 50.175625 0.58203125 50.78125 C4.88464921 56.79125604 5.06022748 62.81976025 4 70 C1.49993759 78.0288348 -3.00158253 82.98777102 -10.07421875 87.25 C-19.91214377 92.06039458 -32.82054922 91.36091362 -43.01953125 87.94921875 C-45.3489767 86.83273898 -47.14051825 85.80899808 -49 84 C-49.20703125 81.80859375 -49.20703125 81.80859375 -48.8125 79.4375 C-48.69519531 78.65246094 -48.57789063 77.86742187 -48.45703125 77.05859375 C-48 75 -48 75 -47 73 C-46.32453125 73.20496094 -45.6490625 73.40992188 -44.953125 73.62109375 C-44.06109375 73.89050781 -43.1690625 74.15992188 -42.25 74.4375 C-41.36828125 74.70433594 -40.4865625 74.97117187 -39.578125 75.24609375 C-38.72734375 75.49488281 -37.8765625 75.74367188 -37 76 C-36.06027344 76.28617188 -36.06027344 76.28617188 -35.1015625 76.578125 C-29.08934598 77.78503835 -20.66201775 78.65125722 -15.25 75.3125 C-11.26199502 71.2137171 -10.78296471 67.56138625 -10.5390625 62.0625 C-11.39253123 58.24358906 -13.63110304 55.89378397 -16.87109375 53.77832031 C-19.11939543 52.50954788 -21.39386114 51.30975791 -23.6875 50.125 C-43.86714158 39.30598873 -43.86714158 39.30598873 -48 29 C-48.79217836 21.0045254 -49.31901059 12.52923491 -44 6 C-32.59227069 -6.44250122 -14.93753115 -7.46876558 0 0 Z " fill="#F9FCFE" transform="translate(285,395)"/>
<path d="M0 0 C10.12559278 -0.51419026 18.43351284 2.75227787 26.125 9.28515625 C24.74311547 12.49559507 23.20078097 14.3345199 20.5 16.53515625 C19.86835938 17.0559375 19.23671875 17.57671875 18.5859375 18.11328125 C18.10382813 18.5 17.62171875 18.88671875 17.125 19.28515625 C14.85611835 18.18189456 12.79293264 17.06377801 10.6875 15.66015625 C5.2110163 13.5464257 -0.07883001 13.62717267 -5.875 14.28515625 C-12.54827559 17.38346277 -16.45692037 22.61679337 -19.1875 29.28515625 C-23.12891157 42.24012378 -22.36463615 57.01010796 -17.359375 69.5078125 C-14.07198042 75.65870078 -10.44582567 79.09099066 -3.875 81.28515625 C2.69635187 82.5639058 7.27197007 80.62974478 12.9609375 77.37890625 C15.125 76.28515625 15.125 76.28515625 18.125 76.28515625 C20.16796875 77.81640625 20.16796875 77.81640625 22.3125 79.78515625 C23.02792969 80.43484375 23.74335938 81.08453125 24.48046875 81.75390625 C25.29451172 82.511875 25.29451172 82.511875 26.125 83.28515625 C24.63994841 87.31226674 22.4841919 88.5254704 18.75 90.47265625 C17.79351562 90.98183594 16.83703125 91.49101562 15.8515625 92.015625 C8.1422289 95.60521442 -2.56157974 95.66350317 -10.78125 93.53125 C-12.94247292 92.58756533 -14.88427126 91.54522191 -16.875 90.28515625 C-18.421875 89.41890625 -18.421875 89.41890625 -20 88.53515625 C-29.52173557 81.0833632 -35.08868657 71.19502959 -36.875 59.28515625 C-37.16757559 55.13504646 -37.20000511 51.00685647 -37.1875 46.84765625 C-37.21166992 45.24567383 -37.21166992 45.24567383 -37.23632812 43.61132812 C-37.24412474 30.84826484 -33.33272076 19.45557166 -24.66015625 9.91796875 C-17.32436391 3.20820682 -9.6435522 0.95649363 0 0 Z " fill="#F9FCFE" transform="translate(188.875,390.71484375)"/>
</svg>
