<svg width="512" height="512" version="1.1" xmlns="http://www.w3.org/2000/svg" desc="Created with imagetracer.js version 1.2.6" ><path fill="rgb(0,0,0)" stroke="rgb(0,0,0)" stroke-width="1" opacity="0.8901960784313725" d="M 238.5 11 L 242 11.5 L 238.5 12 L 238.5 11 Z " /><path fill="rgb(0,0,0)" stroke="rgb(0,0,0)" stroke-width="1" opacity="0.8901960784313725" d="M 270.5 11 L 274 11.5 L 270.5 12 L 270.5 11 Z " /><path fill="rgb(0,0,0)" stroke="rgb(0,0,0)" stroke-width="1" opacity="0.8901960784313725" d="M 395.5 51 L 396.5 53 L 395.5 51 Z " /><path fill="rgb(0,0,0)" stroke="rgb(0,0,0)" stroke-width="1" opacity="0.8901960784313725" d="M 110.5 55 L 109.5 57 L 110.5 55 Z " /><path fill="rgb(0,0,0)" stroke="rgb(0,0,0)" stroke-width="1" opacity="0.8901960784313725" d="M 401.5 55 L 402.5 57 L 401.5 55 Z " /><path fill="rgb(0,0,0)" stroke="rgb(0,0,0)" stroke-width="1" opacity="0.8901960784313725" d="M 99.5 63 L 98.5 65 L 99.5 63 Z " /><path fill="rgb(0,0,0)" stroke="rgb(0,0,0)" stroke-width="1" opacity="0.8901960784313725" d="M 412.5 63 L 413.5 65 L 412.5 63 Z " /><path fill="rgb(0,0,0)" stroke="rgb(0,0,0)" stroke-width="1" opacity="0.8901960784313725" d="M 95.5 66 L 94.5 68 L 95.5 66 Z " /><path fill="rgb(0,0,0)" stroke="rgb(0,0,0)" stroke-width="1" opacity="0.8901960784313725" d="M 416.5 66 L 417.5 68 L 416.5 66 Z " /><path fill="rgb(0,0,0)" stroke="rgb(0,0,0)" stroke-width="1" opacity="0.8901960784313725" d="M 89.5 71 L 87.5 74 L 89.5 71 Z " /><path fill="rgb(0,0,0)" stroke="rgb(0,0,0)" stroke-width="1" opacity="0.8901960784313725" d="M 422.5 71 L 424.5 74 L 422.5 71 Z " /><path fill="rgb(0,0,0)" stroke="rgb(0,0,0)" stroke-width="1" opacity="0.8901960784313725" d="M 82.5 77 L 76.5 84 L 82.5 77 Z " /><path fill="rgb(0,0,0)" stroke="rgb(0,0,0)" stroke-width="1" opacity="0.8901960784313725" d="M 429.5 77 L 446.5 95 L 429.5 77 Z " /><path fill="rgb(0,0,0)" stroke="rgb(0,0,0)" stroke-width="1" opacity="0.8901960784313725" d="M 74.5 85 L 65.5 95 L 74.5 85 Z " /><path fill="rgb(0,0,0)" stroke="rgb(0,0,0)" stroke-width="1" opacity="0.8901960784313725" d="M 60.5 100 L 58.5 103 L 60.5 100 Z " /><path fill="rgb(0,0,0)" stroke="rgb(0,0,0)" stroke-width="1" opacity="0.8901960784313725" d="M 451.5 100 L 453.5 103 L 451.5 100 Z " /><path fill="rgb(0,0,0)" stroke="rgb(0,0,0)" stroke-width="1" opacity="0.8901960784313725" d="M 55.5 106 L 54.5 108 L 55.5 106 Z " /><path fill="rgb(0,0,0)" stroke="rgb(0,0,0)" stroke-width="1" opacity="0.8901960784313725" d="M 456.5 106 L 457.5 108 L 456.5 106 Z " /><path fill="rgb(0,0,0)" stroke="rgb(0,0,0)" stroke-width="1" opacity="0.8901960784313725" d="M 51.5 111 L 50.5 113 L 51.5 111 Z " /><path fill="rgb(0,0,0)" stroke="rgb(0,0,0)" stroke-width="1" opacity="0.8901960784313725" d="M 460.5 111 L 461.5 113 L 460.5 111 Z " /><path fill="rgb(0,0,0)" stroke="rgb(0,0,0)" stroke-width="1" opacity="0.8901960784313725" d="M 131.5 114 L 134 114.5 L 131.5 115 L 131.5 114 Z " /><path fill="rgb(0,0,0)" stroke="rgb(0,0,0)" stroke-width="1" opacity="0.8901960784313725" d="M 377.5 114 L 380 114.5 L 377.5 115 L 377.5 114 Z " /><path fill="rgb(0,0,0)" stroke="rgb(0,0,0)" stroke-width="1" opacity="0.8901960784313725" d="M 46.5 118 L 45.5 120 L 46.5 118 Z " /><path fill="rgb(0,0,0)" stroke="rgb(0,0,0)" stroke-width="1" opacity="0.8901960784313725" d="M 465.5 118 L 466.5 120 L 465.5 118 Z " /><path fill="rgb(0,0,0)" stroke="rgb(0,0,0)" stroke-width="1" opacity="0.8901960784313725" d="M 239.5 132 L 244 132.5 L 239.5 133 L 239.5 132 Z " /><path fill="rgb(0,0,0)" stroke="rgb(0,0,0)" stroke-width="1" opacity="0.8901960784313725" d="M 267.5 132 L 272 132.5 L 267.5 133 L 267.5 132 Z " /><path fill="rgb(0,0,0)" stroke="rgb(0,0,0)" stroke-width="1" opacity="0.8901960784313725" d="M 113.5 146 L 114 158.5 L 113 158.5 L 113.5 146 Z " /><path fill="rgb(0,0,0)" stroke="rgb(0,0,0)" stroke-width="1" opacity="0.8901960784313725" d="M 397.5 146 L 398 159.5 L 397 159.5 L 397.5 146 Z " /><path fill="rgb(0,0,0)" stroke="rgb(0,0,0)" stroke-width="1" opacity="0.8901960784313725" d="M 393.5 182 L 395.5 185 L 393.5 182 Z " /><path fill="rgb(0,0,0)" stroke="rgb(0,0,0)" stroke-width="1" opacity="0.8901960784313725" d="M 114.5 186 L 113.5 188 L 114.5 186 Z " /><path fill="rgb(0,0,0)" stroke="rgb(0,0,0)" stroke-width="1" opacity="0.8901960784313725" d="M 398.5 188 L 399.5 190 L 398.5 188 Z " /><path fill="rgb(0,0,0)" stroke="rgb(0,0,0)" stroke-width="1" opacity="0.8901960784313725" d="M 510.5 237 L 511 239.5 L 510 239.5 L 510.5 237 Z " /><path fill="rgb(0,0,0)" stroke="rgb(0,0,0)" stroke-width="1" opacity="0.8901960784313725" d="M 418.5 239 L 419 241.5 L 418 241.5 L 418.5 239 Z " /><path fill="rgb(0,0,0)" stroke="rgb(0,0,0)" stroke-width="1" opacity="0.8901960784313725" d="M 92.5 242 L 93 247.5 L 92 247.5 L 92.5 242 Z " /><path fill="rgb(0,0,0)" stroke="rgb(0,0,0)" stroke-width="1" opacity="0.8901960784313725" d="M 0.5 250 L 1 257.5 L 0 257.5 L 0.5 250 Z " /><path fill="rgb(0,0,0)" stroke="rgb(0,0,0)" stroke-width="1" opacity="0.8901960784313725" d="M 92.5 250 L 93 259.5 L 92 259.5 L 92.5 250 Z " /><path fill="rgb(0,0,0)" stroke="rgb(0,0,0)" stroke-width="1" opacity="0.8901960784313725" d="M 511.5 250 L 512 257.5 L 511 257.5 L 511.5 250 Z " /><path fill="rgb(0,0,0)" stroke="rgb(0,0,0)" stroke-width="1" opacity="0.8901960784313725" d="M 418.5 259 L 419 262.5 L 418 262.5 L 418.5 259 Z " /><path fill="rgb(0,0,0)" stroke="rgb(0,0,0)" stroke-width="1" opacity="0.8901960784313725" d="M 0.5 265 L 1 273.5 L 0 273.5 L 0.5 265 Z " /><path fill="rgb(0,0,0)" stroke="rgb(0,0,0)" stroke-width="1" opacity="0.8901960784313725" d="M 511.5 265 L 512 273.5 L 511 273.5 L 511.5 265 Z " /><path fill="rgb(0,0,0)" stroke="rgb(0,0,0)" stroke-width="1" opacity="0.8901960784313725" d="M 93.5 269 L 94 271.5 L 93 271.5 L 93.5 269 Z " /><path fill="rgb(0,0,0)" stroke="rgb(0,0,0)" stroke-width="1" opacity="0.8901960784313725" d="M 417.5 271 L 418 273.5 L 417 273.5 L 417.5 271 Z " /><path fill="rgb(0,0,0)" stroke="rgb(0,0,0)" stroke-width="1" opacity="0.8901960784313725" d="M 111.5 325 L 112.5 327 L 111.5 325 Z " /><path fill="rgb(0,0,0)" stroke="rgb(0,0,0)" stroke-width="1" opacity="0.8901960784313725" d="M 394.5 332 L 393.5 334 L 394.5 332 Z " /><path fill="rgb(0,0,0)" stroke="rgb(0,0,0)" stroke-width="1" opacity="0.8901960784313725" d="M 117.5 333 L 120.5 337 L 117.5 333 Z " /><path fill="rgb(0,0,0)" stroke="rgb(0,0,0)" stroke-width="1" opacity="0.8901960784313725" d="M 126.5 342 L 129.5 346 L 126.5 342 Z " /><path fill="rgb(0,0,0)" stroke="rgb(0,0,0)" stroke-width="1" opacity="0.8901960784313725" d="M 382.5 344 L 381.5 346 L 382.5 344 Z " /><path fill="rgb(0,0,0)" stroke="rgb(0,0,0)" stroke-width="1" opacity="0.8901960784313725" d="M 132.5 347 L 133.5 349 L 132.5 347 Z " /><path fill="rgb(0,0,0)" stroke="rgb(0,0,0)" stroke-width="1" opacity="0.8901960784313725" d="M 374.5 350 L 373.5 352 L 374.5 350 Z " /><path fill="rgb(0,0,0)" stroke="rgb(0,0,0)" stroke-width="1" opacity="0.8901960784313725" d="M 106.5 371 L 113.5 379 L 106.5 371 Z " /><path fill="rgb(0,0,0)" stroke="rgb(0,0,0)" stroke-width="1" opacity="0.8901960784313725" d="M 206.5 373 Q 208.8 372.3 208 374.5 L 206 375.5 L 206.5 373 Z " /><path fill="rgb(0,0,0)" stroke="rgb(0,0,0)" stroke-width="1" opacity="0.8901960784313725" d="M 302.5 373 L 306.5 378 L 302.5 373 Z " /><path fill="rgb(0,0,0)" stroke="rgb(0,0,0)" stroke-width="1" opacity="0.8901960784313725" d="M 80.5 377 L 81.5 379 L 80.5 377 Z " /><path fill="rgb(0,0,0)" stroke="rgb(0,0,0)" stroke-width="1" opacity="0.8901960784313725" d="M 308.5 380 L 309.5 382 L 308.5 380 Z " /><path fill="rgb(0,0,0)" stroke="rgb(0,0,0)" stroke-width="1" opacity="0.8901960784313725" d="M 85.5 381 L 89.5 386 L 85.5 381 Z " /><path fill="rgb(0,0,0)" stroke="rgb(0,0,0)" stroke-width="1" opacity="0.8901960784313725" d="M 95.5 393 L 96.5 395 L 95.5 393 Z " /><path fill="rgb(0,0,0)" stroke="rgb(0,0,0)" stroke-width="1" opacity="0.8901960784313725" d="M 125.5 395 L 132.5 403 L 125.5 395 Z " /><path fill="rgb(0,0,0)" stroke="rgb(0,0,0)" stroke-width="1" opacity="0.8901960784313725" d="M 471.5 397 L 470.5 399 L 471.5 397 Z " /><path fill="rgb(0,0,0)" stroke="rgb(0,0,0)" stroke-width="1" opacity="0.8901960784313725" d="M 469.5 400 L 468.5 402 L 469.5 400 Z " /><path fill="rgb(0,0,0)" stroke="rgb(0,0,0)" stroke-width="1" opacity="0.8901960784313725" d="M 135.5 404 L 136.5 406 L 135.5 404 Z " /><path fill="rgb(0,0,0)" stroke="rgb(0,0,0)" stroke-width="1" opacity="0.8901960784313725" d="M 46.5 406 L 47.5 408 L 46.5 406 Z " /><path fill="rgb(0,0,0)" stroke="rgb(0,0,0)" stroke-width="1" opacity="0.8901960784313725" d="M 49.5 410 L 50.5 412 L 49.5 410 Z " /><path fill="rgb(0,0,0)" stroke="rgb(0,0,0)" stroke-width="1" opacity="0.8901960784313725" d="M 52.5 414 L 53.5 416 L 52.5 414 Z " /><path fill="rgb(0,0,0)" stroke="rgb(0,0,0)" stroke-width="1" opacity="0.8901960784313725" d="M 458.5 415 L 457.5 417 L 458.5 415 Z " /><path fill="rgb(0,0,0)" stroke="rgb(0,0,0)" stroke-width="1" opacity="0.8901960784313725" d="M 56.5 419 L 58.5 422 L 56.5 419 Z " /><path fill="rgb(0,0,0)" stroke="rgb(0,0,0)" stroke-width="1" opacity="0.8901960784313725" d="M 454.5 420 L 452.5 423 L 454.5 420 Z " /><path fill="rgb(0,0,0)" stroke="rgb(0,0,0)" stroke-width="1" opacity="0.8901960784313725" d="M 61.5 425 L 65.5 430 L 61.5 425 Z " /><path fill="rgb(0,0,0)" stroke="rgb(0,0,0)" stroke-width="1" opacity="0.8901960784313725" d="M 114.5 427 L 116.5 430 L 114.5 427 Z " /><path fill="rgb(0,0,0)" stroke="rgb(0,0,0)" stroke-width="1" opacity="0.8901960784313725" d="M 448.5 427 L 444.5 432 L 448.5 427 Z " /><path fill="rgb(0,0,0)" stroke="rgb(0,0,0)" stroke-width="1" opacity="0.8901960784313725" d="M 119.5 432 L 122.5 436 L 119.5 432 Z " /><path fill="rgb(0,0,0)" stroke="rgb(0,0,0)" stroke-width="1" opacity="0.8901960784313725" d="M 433.5 442 L 428.5 448 L 433.5 442 Z " /><path fill="rgb(0,0,0)" stroke="rgb(0,0,0)" stroke-width="1" opacity="0.8901960784313725" d="M 83.5 447 L 85.5 450 L 83.5 447 Z " /><path fill="rgb(0,0,0)" stroke="rgb(0,0,0)" stroke-width="1" opacity="0.8901960784313725" d="M 423.5 451 L 421.5 454 L 423.5 451 Z " /><path fill="rgb(0,0,0)" stroke="rgb(0,0,0)" stroke-width="1" opacity="0.8901960784313725" d="M 91.5 454 L 92.5 456 L 91.5 454 Z " /><path fill="rgb(0,0,0)" stroke="rgb(0,0,0)" stroke-width="1" opacity="0.8901960784313725" d="M 417.5 456 L 416.5 458 L 417.5 456 Z " /><path fill="rgb(0,0,0)" stroke="rgb(0,0,0)" stroke-width="1" opacity="0.8901960784313725" d="M 96.5 458 L 97.5 460 L 96.5 458 Z " /><path fill="rgb(0,0,0)" stroke="rgb(0,0,0)" stroke-width="1" opacity="0.8901960784313725" d="M 100.5 461 L 101.5 463 L 100.5 461 Z " /><path fill="rgb(0,0,0)" stroke="rgb(0,0,0)" stroke-width="1" opacity="0.8901960784313725" d="M 104.5 464 L 105.5 466 L 104.5 464 Z " /><path fill="rgb(0,0,0)" stroke="rgb(0,0,0)" stroke-width="1" opacity="0.8901960784313725" d="M 405.5 465 L 404.5 467 L 405.5 465 Z " /><path fill="rgb(0,0,0)" stroke="rgb(0,0,0)" stroke-width="1" opacity="0.8901960784313725" d="M 321.5 496 L 323.5 499 L 321.5 496 Z " /><path fill="rgb(0,0,0)" stroke="rgb(0,0,0)" stroke-width="1" opacity="0.8901960784313725" d="M 187.5 498 L 186.5 500 L 187.5 498 Z " /><path fill="rgb(0,0,0)" stroke="rgb(0,0,0)" stroke-width="1" opacity="1" d="M 242.5 11 L 269.5 11 L 270.5 12 L 282.5 12 L 283.5 13 L 303.5 15 Q 331.1 20.4 354.5 30 Q 412.8 54.7 451 99.5 Q 480 132.5 497 177.5 L 504 199.5 L 508 217.5 L 509 229.5 L 510 230.5 L 510 239.5 L 511 240.5 L 512 264.5 L 511 265.5 L 511 284.5 L 510 285.5 L 510 293.5 L 509 294.5 L 507 311.5 L 499 341.5 L 492 359.5 Q 470.6 408.1 434.5 442 Q 411 464.5 381.5 481 L 346.5 497 L 330.5 501 Q 323.1 499.9 320 494.5 L 319 491.5 L 319 407.5 L 315 391.5 Q 311 380.5 303 373.5 L 327.5 370 L 356.5 361 Q 380.1 351.1 395 332.5 Q 421.4 300.4 419 239.5 L 418 238.5 L 417 226.5 L 412 210.5 Q 404.6 193.4 393 180.5 L 397 167.5 L 398 146.5 L 393 121.5 L 388.5 114 L 377.5 114 L 361.5 118 Q 338.3 126.3 320.5 140 L 316.5 140 L 307.5 137 L 290.5 134 L 283.5 134 L 282.5 133 L 272.5 133 L 271.5 132 L 239.5 132 L 238.5 133 L 220.5 134 L 190.5 140 Q 172.7 126.3 149.5 118 L 133.5 114 L 122.5 114 L 120 116.5 L 115 132.5 L 114 145.5 L 113 146.5 L 113 158.5 L 114 159.5 L 114 167.5 L 118 182.5 Q 104.1 196.1 97 216.5 L 93 233.5 L 92 259.5 L 93 260.5 L 93 271.5 L 94 272.5 L 96 289.5 L 102 308.5 Q 111.6 331.4 129.5 346 Q 142.4 356.6 159.5 363 L 182.5 370 L 205.5 373 L 207 374.5 Q 194.9 386.2 193 407 L 172.5 413 L 155.5 413 Q 133.4 408.6 123 392.5 Q 116.8 379.7 106.5 371 L 91.5 362 L 84.5 360 L 73.5 360 L 68 362 L 67 365.5 L 70 371 Q 83.5 377.8 93 389.5 Q 103.1 402.9 109 420.5 L 122.5 436 Q 133 444.5 148.5 448 Q 153.3 446.7 154.5 449 L 179.5 449 L 192 447 L 192 492.5 L 188.5 498 Q 184.7 502.2 175.5 501 Q 108.6 477.9 66 430.5 Q 34.3 396.7 16 349.5 L 9 328.5 L 4 306.5 L 2 285.5 L 1 284.5 L 0 258.5 L 1 257.5 L 1 239.5 L 2 238.5 L 2 230.5 L 3 229.5 L 5 212.5 L 10 192.5 L 21 162.5 Q 30.8 140.3 44 121.5 L 75 84 L 112.5 54 L 150.5 33 L 173.5 24 L 198.5 17 L 221.5 13 L 241.5 12 L 242.5 11 Z " /><path fill="rgb(0,0,0)" stroke="rgb(0,0,0)" stroke-width="1" opacity="0" d="M 0 0 L 512 0 L 512 242.5 L 511 242.5 L 510 225.5 L 503 193.5 Q 495.1 166.9 483 144.5 Q 460 103 425.5 73 Q 390.8 42.7 343.5 25 L 324.5 19 L 295.5 13 L 280.5 12 L 279.5 11 L 249.5 10 L 248.5 11 L 223.5 12 L 195.5 17 L 168.5 25 L 144.5 35 Q 95.1 59.1 61 98.5 Q 35.4 127.4 19 165.5 Q 10.2 185.7 5 209.5 L 2 225.5 L 0.5 243 L 0 0 Z " /><path fill="rgb(0,0,0)" stroke="rgb(0,0,0)" stroke-width="1" opacity="0" d="M 121 115 L 134.5 115 L 155.5 121 Q 174.3 128.7 189.5 140 L 193.5 141 L 212.5 136 L 234.5 134 L 235.5 133 L 275.5 133 L 276.5 134 L 285.5 134 L 286.5 135 L 304.5 137 L 320.5 141 Q 335.9 128.9 355.5 121 L 376.5 115 L 390 115 L 396 136.5 L 397 162.5 L 395 173.5 L 392 181.5 Q 407.9 197.1 415 221.5 L 418 236.5 L 418 266.5 L 417 267.5 L 417 275.5 L 414 291.5 L 408 309.5 Q 398.4 331.9 380.5 346 Q 367.2 356.7 349.5 363 L 324.5 370 L 305.5 372 L 302 373.5 L 311 384.5 Q 316 393.5 318 405.5 Q 316.3 411.7 319 413.5 L 319 478.5 L 318 479.5 L 318 488.5 L 320 495.5 L 324.5 500 Q 328.3 502.7 336.5 501 Q 401.8 478.8 444 433.5 Q 472.6 403.6 491 363.5 L 499 343.5 L 506 319.5 L 510 298.5 L 511.5 281 L 512 512 L 0 512 L 0 281.5 L 1 281.5 L 1 291.5 L 6 319.5 L 10 334.5 L 20 361.5 Q 42.8 412.2 81.5 447 Q 102.6 466.4 128.5 481 L 152.5 493 L 173.5 501 L 180.5 502 L 190 497.5 L 193 491.5 L 193 450.5 L 192 446 L 181.5 448 L 161.5 449 L 160.5 448 L 147.5 447 L 135.5 443 Q 122.5 437 114 426.5 L 100 398.5 Q 93.3 387.2 83.5 379 L 70 369.5 Q 67.4 368.1 68 363.5 L 72.5 361 L 79.5 360 L 89.5 362 L 96.5 365 Q 106.3 370.3 113 378.5 L 122 392.5 L 134.5 405 Q 146.6 414.9 169.5 414 L 180.5 412 L 193 408 L 197 391.5 Q 201.3 380.8 209 373.5 L 181.5 369 L 158.5 362 Q 133.7 352.3 118 333.5 Q 104.3 317.7 98 294.5 L 94 274.5 L 94 265.5 L 93 264.5 L 93 238.5 L 94 237.5 L 95 226.5 L 100 210.5 L 108 195.5 L 119 182.5 L 119 180.5 L 114 162.5 L 114 143.5 L 117 127.5 L 121 115 Z " /><path fill="rgb(0,0,0)" stroke="rgb(0,0,0)" stroke-width="1" opacity="0.47843137254901963" d="M 249.5 10 L 263 10.5 L 249.5 11 L 249.5 10 Z " /><path fill="rgb(0,0,0)" stroke="rgb(0,0,0)" stroke-width="1" opacity="0.47843137254901963" d="M 232.5 11 L 238 11.5 L 232.5 12 L 232.5 11 Z " /><path fill="rgb(0,0,0)" stroke="rgb(0,0,0)" stroke-width="1" opacity="0.47843137254901963" d="M 274.5 11 L 280 11.5 L 274.5 12 L 274.5 11 Z " /><path fill="rgb(0,0,0)" stroke="rgb(0,0,0)" stroke-width="1" opacity="0.47843137254901963" d="M 223.5 12 L 227 12.5 L 223.5 13 L 223.5 12 Z " /><path fill="rgb(0,0,0)" stroke="rgb(0,0,0)" stroke-width="1" opacity="0.47843137254901963" d="M 285.5 12 L 289 12.5 L 285.5 13 L 285.5 12 Z " /><path fill="rgb(0,0,0)" stroke="rgb(0,0,0)" stroke-width="1" opacity="0.47843137254901963" d="M 216.5 13 L 219 13.5 L 216.5 14 L 216.5 13 Z " /><path fill="rgb(0,0,0)" stroke="rgb(0,0,0)" stroke-width="1" opacity="0.47843137254901963" d="M 293.5 13 L 296 13.5 L 293.5 14 L 293.5 13 Z " /><path fill="rgb(0,0,0)" stroke="rgb(0,0,0)" stroke-width="1" opacity="0.47843137254901963" d="M 204.5 15 L 207 15.5 L 204.5 16 L 204.5 15 Z " /><path fill="rgb(0,0,0)" stroke="rgb(0,0,0)" stroke-width="1" opacity="0.47843137254901963" d="M 117.5 50 L 116.5 52 L 117.5 50 Z " /><path fill="rgb(0,0,0)" stroke="rgb(0,0,0)" stroke-width="1" opacity="0.47843137254901963" d="M 108.5 56 L 107.5 58 L 108.5 56 Z " /><path fill="rgb(0,0,0)" stroke="rgb(0,0,0)" stroke-width="1" opacity="0.47843137254901963" d="M 403.5 56 L 404.5 58 L 403.5 56 Z " /><path fill="rgb(0,0,0)" stroke="rgb(0,0,0)" stroke-width="1" opacity="0.47843137254901963" d="M 406.5 58 L 407.5 60 L 406.5 58 Z " /><path fill="rgb(0,0,0)" stroke="rgb(0,0,0)" stroke-width="1" opacity="0.47843137254901963" d="M 101.5 61 L 100.5 63 L 101.5 61 Z " /><path fill="rgb(0,0,0)" stroke="rgb(0,0,0)" stroke-width="1" opacity="0.47843137254901963" d="M 410.5 61 L 411.5 63 L 410.5 61 Z " /><path fill="rgb(0,0,0)" stroke="rgb(0,0,0)" stroke-width="1" opacity="0.47843137254901963" d="M 97.5 64 L 96.5 66 L 97.5 64 Z " /><path fill="rgb(0,0,0)" stroke="rgb(0,0,0)" stroke-width="1" opacity="0.47843137254901963" d="M 414.5 64 L 415.5 66 L 414.5 64 Z " /><path fill="rgb(0,0,0)" stroke="rgb(0,0,0)" stroke-width="1" opacity="0.47843137254901963" d="M 92.5 68 L 90.5 71 L 92.5 68 Z " /><path fill="rgb(0,0,0)" stroke="rgb(0,0,0)" stroke-width="1" opacity="0.47843137254901963" d="M 419.5 68 L 421.5 71 L 419.5 68 Z " /><path fill="rgb(0,0,0)" stroke="rgb(0,0,0)" stroke-width="1" opacity="0.47843137254901963" d="M 86.5 73 L 83.5 77 L 86.5 73 Z " /><path fill="rgb(0,0,0)" stroke="rgb(0,0,0)" stroke-width="1" opacity="0.47843137254901963" d="M 425.5 73 L 428.5 77 L 425.5 73 Z " /><path fill="rgb(0,0,0)" stroke="rgb(0,0,0)" stroke-width="1" opacity="0.47843137254901963" d="M 64.5 95 L 61.5 99 L 64.5 95 Z " /><path fill="rgb(0,0,0)" stroke="rgb(0,0,0)" stroke-width="1" opacity="0.47843137254901963" d="M 447.5 95 L 450.5 99 L 447.5 95 Z " /><path fill="rgb(0,0,0)" stroke="rgb(0,0,0)" stroke-width="1" opacity="0.47843137254901963" d="M 57.5 103 L 56.5 105 L 57.5 103 Z " /><path fill="rgb(0,0,0)" stroke="rgb(0,0,0)" stroke-width="1" opacity="0.47843137254901963" d="M 454.5 103 L 455.5 105 L 454.5 103 Z " /><path fill="rgb(0,0,0)" stroke="rgb(0,0,0)" stroke-width="1" opacity="0.47843137254901963" d="M 53.5 108 L 52.5 110 L 53.5 108 Z " /><path fill="rgb(0,0,0)" stroke="rgb(0,0,0)" stroke-width="1" opacity="0.47843137254901963" d="M 458.5 108 L 459.5 110 L 458.5 108 Z " /><path fill="rgb(0,0,0)" stroke="rgb(0,0,0)" stroke-width="1" opacity="0.47843137254901963" d="M 123.5 114 L 131 114.5 L 123.5 115 L 123.5 114 Z " /><path fill="rgb(0,0,0)" stroke="rgb(0,0,0)" stroke-width="1" opacity="0.47843137254901963" d="M 380.5 114 L 388 114.5 L 380.5 115 L 380.5 114 Z " /><path fill="rgb(0,0,0)" stroke="rgb(0,0,0)" stroke-width="1" opacity="0.47843137254901963" d="M 135.5 115 L 138 115.5 L 135.5 116 L 135.5 115 Z " /><path fill="rgb(0,0,0)" stroke="rgb(0,0,0)" stroke-width="1" opacity="0.47843137254901963" d="M 373.5 115 L 376 115.5 L 373.5 116 L 373.5 115 Z " /><path fill="rgb(0,0,0)" stroke="rgb(0,0,0)" stroke-width="1" opacity="0.47843137254901963" d="M 47.5 116 L 46.5 118 L 47.5 116 Z " /><path fill="rgb(0,0,0)" stroke="rgb(0,0,0)" stroke-width="1" opacity="0.47843137254901963" d="M 464.5 116 L 465.5 118 L 464.5 116 Z " /><path fill="rgb(0,0,0)" stroke="rgb(0,0,0)" stroke-width="1" opacity="0.47843137254901963" d="M 44.5 120 L 43.5 122 L 44.5 120 Z " /><path fill="rgb(0,0,0)" stroke="rgb(0,0,0)" stroke-width="1" opacity="0.47843137254901963" d="M 469.5 123 L 470.5 125 L 469.5 123 Z " /><path fill="rgb(0,0,0)" stroke="rgb(0,0,0)" stroke-width="1" opacity="0.47843137254901963" d="M 178.5 132 L 179.5 134 L 178.5 132 Z " /><path fill="rgb(0,0,0)" stroke="rgb(0,0,0)" stroke-width="1" opacity="0.47843137254901963" d="M 244.5 132 L 267 132.5 L 244.5 133 L 244.5 132 Z " /><path fill="rgb(0,0,0)" stroke="rgb(0,0,0)" stroke-width="1" opacity="0.47843137254901963" d="M 230.5 133 L 235 133.5 L 230.5 134 L 230.5 133 Z " /><path fill="rgb(0,0,0)" stroke="rgb(0,0,0)" stroke-width="1" opacity="0.47843137254901963" d="M 276.5 133 L 281 133.5 L 276.5 134 L 276.5 133 Z " /><path fill="rgb(0,0,0)" stroke="rgb(0,0,0)" stroke-width="1" opacity="0.47843137254901963" d="M 222.5 134 L 226 134.5 L 222.5 135 L 222.5 134 Z " /><path fill="rgb(0,0,0)" stroke="rgb(0,0,0)" stroke-width="1" opacity="0.47843137254901963" d="M 286.5 134 L 289 134.5 L 286.5 135 L 286.5 134 Z " /><path fill="rgb(0,0,0)" stroke="rgb(0,0,0)" stroke-width="1" opacity="0.47843137254901963" d="M 215.5 135 L 218 135.5 L 215.5 136 L 215.5 135 Z " /><path fill="rgb(0,0,0)" stroke="rgb(0,0,0)" stroke-width="1" opacity="0.47843137254901963" d="M 293.5 135 L 296 135.5 L 293.5 136 L 293.5 135 Z " /><path fill="rgb(0,0,0)" stroke="rgb(0,0,0)" stroke-width="1" opacity="0.47843137254901963" d="M 299.5 136 L 302 136.5 L 299.5 137 L 299.5 136 Z " /><path fill="rgb(0,0,0)" stroke="rgb(0,0,0)" stroke-width="1" opacity="0.47843137254901963" d="M 114.5 139 L 115 142.5 L 114 142.5 L 114.5 139 Z " /><path fill="rgb(0,0,0)" stroke="rgb(0,0,0)" stroke-width="1" opacity="0.47843137254901963" d="M 321.5 139 L 320.5 141 L 321.5 139 Z " /><path fill="rgb(0,0,0)" stroke="rgb(0,0,0)" stroke-width="1" opacity="0.47843137254901963" d="M 396.5 139 L 397 142.5 L 396 142.5 L 396.5 139 Z " /><path fill="rgb(0,0,0)" stroke="rgb(0,0,0)" stroke-width="1" opacity="0.47843137254901963" d="M 191.5 140 L 194 140.5 L 191.5 141 L 191.5 140 Z " /><path fill="rgb(0,0,0)" stroke="rgb(0,0,0)" stroke-width="1" opacity="0.47843137254901963" d="M 114.5 163 L 115 165.5 L 114 165.5 L 114.5 163 Z " /><path fill="rgb(0,0,0)" stroke="rgb(0,0,0)" stroke-width="1" opacity="0.47843137254901963" d="M 396.5 163 L 397 165.5 L 396 165.5 L 396.5 163 Z " /><path fill="rgb(0,0,0)" stroke="rgb(0,0,0)" stroke-width="1" opacity="0.47843137254901963" d="M 395.5 169 L 396 171.5 L 395 171.5 L 395.5 169 Z " /><path fill="rgb(0,0,0)" stroke="rgb(0,0,0)" stroke-width="1" opacity="0.47843137254901963" d="M 118.5 182 L 115.5 186 L 118.5 182 Z " /><path fill="rgb(0,0,0)" stroke="rgb(0,0,0)" stroke-width="1" opacity="0.47843137254901963" d="M 395.5 185 L 397.5 188 L 395.5 185 Z " /><path fill="rgb(0,0,0)" stroke="rgb(0,0,0)" stroke-width="1" opacity="0.47843137254901963" d="M 112.5 189 L 111.5 191 L 112.5 189 Z " /><path fill="rgb(0,0,0)" stroke="rgb(0,0,0)" stroke-width="1" opacity="0.47843137254901963" d="M 399.5 190 L 400.5 192 L 399.5 190 Z " /><path fill="rgb(0,0,0)" stroke="rgb(0,0,0)" stroke-width="1" opacity="0.47843137254901963" d="M 106.5 198 L 105.5 200 L 106.5 198 Z " /><path fill="rgb(0,0,0)" stroke="rgb(0,0,0)" stroke-width="1" opacity="0.47843137254901963" d="M 3.5 219 L 4 221.5 L 3 221.5 L 3.5 219 Z " /><path fill="rgb(0,0,0)" stroke="rgb(0,0,0)" stroke-width="1" opacity="0.47843137254901963" d="M 508.5 219 L 509 221.5 L 508 221.5 L 508.5 219 Z " /><path fill="rgb(0,0,0)" stroke="rgb(0,0,0)" stroke-width="1" opacity="0.47843137254901963" d="M 2.5 225 L 3 227.5 L 2 227.5 L 2.5 225 Z " /><path fill="rgb(0,0,0)" stroke="rgb(0,0,0)" stroke-width="1" opacity="0.47843137254901963" d="M 509.5 225 L 510 227.5 L 509 227.5 L 509.5 225 Z " /><path fill="rgb(0,0,0)" stroke="rgb(0,0,0)" stroke-width="1" opacity="0.47843137254901963" d="M 94.5 228 L 95 230.5 L 94 230.5 L 94.5 228 Z " /><path fill="rgb(0,0,0)" stroke="rgb(0,0,0)" stroke-width="1" opacity="0.47843137254901963" d="M 1.5 233 L 2 236.5 L 1 236.5 L 1.5 233 Z " /><path fill="rgb(0,0,0)" stroke="rgb(0,0,0)" stroke-width="1" opacity="0.47843137254901963" d="M 417.5 233 L 418 235.5 L 417 235.5 L 417.5 233 Z " /><path fill="rgb(0,0,0)" stroke="rgb(0,0,0)" stroke-width="1" opacity="0.47843137254901963" d="M 510.5 233 L 511 236.5 L 510 236.5 L 510.5 233 Z " /><path fill="rgb(0,0,0)" stroke="rgb(0,0,0)" stroke-width="1" opacity="0.47843137254901963" d="M 93.5 234 L 94 237.5 L 93 237.5 L 93.5 234 Z " /><path fill="rgb(0,0,0)" stroke="rgb(0,0,0)" stroke-width="1" opacity="0.47843137254901963" d="M 418.5 242 L 419 258.5 L 418 258.5 L 418.5 242 Z " /><path fill="rgb(0,0,0)" stroke="rgb(0,0,0)" stroke-width="1" opacity="0.47843137254901963" d="M 0.5 243 L 1 249.5 L 0 249.5 L 0.5 243 Z " /><path fill="rgb(0,0,0)" stroke="rgb(0,0,0)" stroke-width="1" opacity="0.47843137254901963" d="M 511.5 243 L 512 249.5 L 511 249.5 L 511.5 243 Z " /><path fill="rgb(0,0,0)" stroke="rgb(0,0,0)" stroke-width="1" opacity="0.47843137254901963" d="M 93.5 265 L 94 268.5 L 93 268.5 L 93.5 265 Z " /><path fill="rgb(0,0,0)" stroke="rgb(0,0,0)" stroke-width="1" opacity="0.47843137254901963" d="M 417.5 267 L 418 270.5 L 417 270.5 L 417.5 267 Z " /><path fill="rgb(0,0,0)" stroke="rgb(0,0,0)" stroke-width="1" opacity="0.47843137254901963" d="M 0.5 274 L 1 280.5 L 0 280.5 L 0.5 274 Z " /><path fill="rgb(0,0,0)" stroke="rgb(0,0,0)" stroke-width="1" opacity="0.47843137254901963" d="M 511.5 274 L 512 280.5 L 511 280.5 L 511.5 274 Z " /><path fill="rgb(0,0,0)" stroke="rgb(0,0,0)" stroke-width="1" opacity="0.47843137254901963" d="M 94.5 275 L 95 277.5 L 94 277.5 L 94.5 275 Z " /><path fill="rgb(0,0,0)" stroke="rgb(0,0,0)" stroke-width="1" opacity="0.47843137254901963" d="M 416.5 276 L 417 278.5 L 416 278.5 L 416.5 276 Z " /><path fill="rgb(0,0,0)" stroke="rgb(0,0,0)" stroke-width="1" opacity="0.47843137254901963" d="M 95.5 281 L 96 283.5 L 95 283.5 L 95.5 281 Z " /><path fill="rgb(0,0,0)" stroke="rgb(0,0,0)" stroke-width="1" opacity="0.47843137254901963" d="M 415.5 282 L 416 284.5 L 415 284.5 L 415.5 282 Z " /><path fill="rgb(0,0,0)" stroke="rgb(0,0,0)" stroke-width="1" opacity="0.47843137254901963" d="M 1.5 287 L 2 291.5 L 1 291.5 L 1.5 287 Z " /><path fill="rgb(0,0,0)" stroke="rgb(0,0,0)" stroke-width="1" opacity="0.47843137254901963" d="M 510.5 287 L 511 291.5 L 510 291.5 L 510.5 287 Z " /><path fill="rgb(0,0,0)" stroke="rgb(0,0,0)" stroke-width="1" opacity="0.47843137254901963" d="M 2.5 296 L 3 298.5 L 2 298.5 L 2.5 296 Z " /><path fill="rgb(0,0,0)" stroke="rgb(0,0,0)" stroke-width="1" opacity="0.47843137254901963" d="M 509.5 296 L 510 298.5 L 509 298.5 L 509.5 296 Z " /><path fill="rgb(0,0,0)" stroke="rgb(0,0,0)" stroke-width="1" opacity="0.47843137254901963" d="M 4.5 308 L 5 310.5 L 4 310.5 L 4.5 308 Z " /><path fill="rgb(0,0,0)" stroke="rgb(0,0,0)" stroke-width="1" opacity="0.47843137254901963" d="M 396.5 329 L 395.5 331 L 396.5 329 Z " /><path fill="rgb(0,0,0)" stroke="rgb(0,0,0)" stroke-width="1" opacity="0.47843137254901963" d="M 115.5 330 L 117.5 333 L 115.5 330 Z " /><path fill="rgb(0,0,0)" stroke="rgb(0,0,0)" stroke-width="1" opacity="0.47843137254901963" d="M 392.5 334 L 383.5 344 L 392.5 334 Z " /><path fill="rgb(0,0,0)" stroke="rgb(0,0,0)" stroke-width="1" opacity="0.47843137254901963" d="M 121.5 337 L 125.5 342 L 121.5 337 Z " /><path fill="rgb(0,0,0)" stroke="rgb(0,0,0)" stroke-width="1" opacity="0.47843137254901963" d="M 130.5 345 L 131.5 347 L 130.5 345 Z " /><path fill="rgb(0,0,0)" stroke="rgb(0,0,0)" stroke-width="1" opacity="0.47843137254901963" d="M 379.5 346 L 378.5 348 L 379.5 346 Z " /><path fill="rgb(0,0,0)" stroke="rgb(0,0,0)" stroke-width="1" opacity="0.47843137254901963" d="M 140.5 352 L 141.5 354 L 140.5 352 Z " /><path fill="rgb(0,0,0)" stroke="rgb(0,0,0)" stroke-width="1" opacity="0.47843137254901963" d="M 74.5 360 L 78 360.5 L 74.5 361 L 74.5 360 Z " /><path fill="rgb(0,0,0)" stroke="rgb(0,0,0)" stroke-width="1" opacity="0.47843137254901963" d="M 80.5 360 L 83 360.5 L 80.5 361 L 80.5 360 Z " /><path fill="rgb(0,0,0)" stroke="rgb(0,0,0)" stroke-width="1" opacity="0.47843137254901963" d="M 97.5 365 L 98.5 367 L 97.5 365 Z " /><path fill="rgb(0,0,0)" stroke="rgb(0,0,0)" stroke-width="1" opacity="0.47843137254901963" d="M 68.5 367 L 69.5 369 L 68.5 367 Z " /><path fill="rgb(0,0,0)" stroke="rgb(0,0,0)" stroke-width="1" opacity="0.47843137254901963" d="M 103.5 369 L 104.5 371 L 103.5 369 Z " /><path fill="rgb(0,0,0)" stroke="rgb(0,0,0)" stroke-width="1" opacity="0.47843137254901963" d="M 188.5 370 L 191 370.5 L 188.5 371 L 188.5 370 Z " /><path fill="rgb(0,0,0)" stroke="rgb(0,0,0)" stroke-width="1" opacity="0.47843137254901963" d="M 319.5 370 L 322 370.5 L 319.5 371 L 319.5 370 Z " /><path fill="rgb(0,0,0)" stroke="rgb(0,0,0)" stroke-width="1" opacity="0.47843137254901963" d="M 72.5 371 L 74.5 374 L 72.5 371 Z " /><path fill="rgb(0,0,0)" stroke="rgb(0,0,0)" stroke-width="1" opacity="0.47843137254901963" d="M 194.5 371 L 197 371.5 L 194.5 372 L 194.5 371 Z " /><path fill="rgb(0,0,0)" stroke="rgb(0,0,0)" stroke-width="1" opacity="0.47843137254901963" d="M 313.5 371 L 316 371.5 L 313.5 372 L 313.5 371 Z " /><path fill="rgb(0,0,0)" stroke="rgb(0,0,0)" stroke-width="1" opacity="0.47843137254901963" d="M 201.5 372 L 204 372.5 L 201.5 373 L 201.5 372 Z " /><path fill="rgb(0,0,0)" stroke="rgb(0,0,0)" stroke-width="1" opacity="0.47843137254901963" d="M 305.5 372 L 309 372.5 L 305.5 373 L 305.5 372 Z " /><path fill="rgb(0,0,0)" stroke="rgb(0,0,0)" stroke-width="1" opacity="0.47843137254901963" d="M 76.5 374 L 77.5 376 L 76.5 374 Z " /><path fill="rgb(0,0,0)" stroke="rgb(0,0,0)" stroke-width="1" opacity="0.47843137254901963" d="M 205.5 377 L 203.5 380 L 205.5 377 Z " /><path fill="rgb(0,0,0)" stroke="rgb(0,0,0)" stroke-width="1" opacity="0.47843137254901963" d="M 83.5 379 L 84.5 381 L 83.5 379 Z " /><path fill="rgb(0,0,0)" stroke="rgb(0,0,0)" stroke-width="1" opacity="0.47843137254901963" d="M 113.5 379 L 115.5 382 L 113.5 379 Z " /><path fill="rgb(0,0,0)" stroke="rgb(0,0,0)" stroke-width="1" opacity="0.47843137254901963" d="M 202.5 381 L 201.5 383 L 202.5 381 Z " /><path fill="rgb(0,0,0)" stroke="rgb(0,0,0)" stroke-width="1" opacity="0.47843137254901963" d="M 90.5 386 L 92.5 389 L 90.5 386 Z " /><path fill="rgb(0,0,0)" stroke="rgb(0,0,0)" stroke-width="1" opacity="0.47843137254901963" d="M 118.5 386 L 119.5 388 L 118.5 386 Z " /><path fill="rgb(0,0,0)" stroke="rgb(0,0,0)" stroke-width="1" opacity="0.47843137254901963" d="M 120.5 389 L 121.5 391 L 120.5 389 Z " /><path fill="rgb(0,0,0)" stroke="rgb(0,0,0)" stroke-width="1" opacity="0.47843137254901963" d="M 94.5 391 L 95.5 393 L 94.5 391 Z " /><path fill="rgb(0,0,0)" stroke="rgb(0,0,0)" stroke-width="1" opacity="0.47843137254901963" d="M 122.5 392 L 124.5 395 L 122.5 392 Z " /><path fill="rgb(0,0,0)" stroke="rgb(0,0,0)" stroke-width="1" opacity="0.47843137254901963" d="M 474.5 393 L 473.5 395 L 474.5 393 Z " /><path fill="rgb(0,0,0)" stroke="rgb(0,0,0)" stroke-width="1" opacity="0.47843137254901963" d="M 98.5 397 L 99.5 399 L 98.5 397 Z " /><path fill="rgb(0,0,0)" stroke="rgb(0,0,0)" stroke-width="1" opacity="0.47843137254901963" d="M 317.5 402 L 318 404.5 L 317 404.5 L 317.5 402 Z " /><path fill="rgb(0,0,0)" stroke="rgb(0,0,0)" stroke-width="1" opacity="0.47843137254901963" d="M 468.5 402 L 467.5 404 L 468.5 402 Z " /><path fill="rgb(0,0,0)" stroke="rgb(0,0,0)" stroke-width="1" opacity="0.47843137254901963" d="M 133.5 403 L 134.5 405 L 133.5 403 Z " /><path fill="rgb(0,0,0)" stroke="rgb(0,0,0)" stroke-width="1" opacity="0.47843137254901963" d="M 466.5 405 L 465.5 407 L 466.5 405 Z " /><path fill="rgb(0,0,0)" stroke="rgb(0,0,0)" stroke-width="1" opacity="0.47843137254901963" d="M 47.5 408 L 48.5 410 L 47.5 408 Z " /><path fill="rgb(0,0,0)" stroke="rgb(0,0,0)" stroke-width="1" opacity="0.47843137254901963" d="M 318.5 408 L 319 412.5 L 318 412.5 L 318.5 408 Z " /><path fill="rgb(0,0,0)" stroke="rgb(0,0,0)" stroke-width="1" opacity="0.47843137254901963" d="M 463.5 409 L 462.5 411 L 463.5 409 Z " /><path fill="rgb(0,0,0)" stroke="rgb(0,0,0)" stroke-width="1" opacity="0.47843137254901963" d="M 50.5 412 L 51.5 414 L 50.5 412 Z " /><path fill="rgb(0,0,0)" stroke="rgb(0,0,0)" stroke-width="1" opacity="0.47843137254901963" d="M 174.5 412 L 177 412.5 L 174.5 413 L 174.5 412 Z " /><path fill="rgb(0,0,0)" stroke="rgb(0,0,0)" stroke-width="1" opacity="0.47843137254901963" d="M 158.5 413 L 170 413.5 L 158.5 414 L 158.5 413 Z " /><path fill="rgb(0,0,0)" stroke="rgb(0,0,0)" stroke-width="1" opacity="0.47843137254901963" d="M 460.5 413 L 459.5 415 L 460.5 413 Z " /><path fill="rgb(0,0,0)" stroke="rgb(0,0,0)" stroke-width="1" opacity="0.47843137254901963" d="M 54.5 417 L 55.5 419 L 54.5 417 Z " /><path fill="rgb(0,0,0)" stroke="rgb(0,0,0)" stroke-width="1" opacity="0.47843137254901963" d="M 456.5 418 L 455.5 420 L 456.5 418 Z " /><path fill="rgb(0,0,0)" stroke="rgb(0,0,0)" stroke-width="1" opacity="0.47843137254901963" d="M 58.5 422 L 60.5 425 L 58.5 422 Z " /><path fill="rgb(0,0,0)" stroke="rgb(0,0,0)" stroke-width="1" opacity="0.47843137254901963" d="M 112.5 424 L 113.5 426 L 112.5 424 Z " /><path fill="rgb(0,0,0)" stroke="rgb(0,0,0)" stroke-width="1" opacity="0.47843137254901963" d="M 451.5 424 L 449.5 427 L 451.5 424 Z " /><path fill="rgb(0,0,0)" stroke="rgb(0,0,0)" stroke-width="1" opacity="0.47843137254901963" d="M 65.5 430 L 81.5 447 L 65.5 430 Z " /><path fill="rgb(0,0,0)" stroke="rgb(0,0,0)" stroke-width="1" opacity="0.47843137254901963" d="M 117.5 430 L 118.5 432 L 117.5 430 Z " /><path fill="rgb(0,0,0)" stroke="rgb(0,0,0)" stroke-width="1" opacity="0.47843137254901963" d="M 443.5 433 L 435.5 442 L 443.5 433 Z " /><path fill="rgb(0,0,0)" stroke="rgb(0,0,0)" stroke-width="1" opacity="0.47843137254901963" d="M 123.5 435 L 124.5 437 L 123.5 435 Z " /><path fill="rgb(0,0,0)" stroke="rgb(0,0,0)" stroke-width="1" opacity="0.47843137254901963" d="M 188.5 446 L 191 446.5 L 188.5 447 L 188.5 446 Z " /><path fill="rgb(0,0,0)" stroke="rgb(0,0,0)" stroke-width="1" opacity="0.47843137254901963" d="M 182.5 447 L 185 447.5 L 182.5 448 L 182.5 447 Z " /><path fill="rgb(0,0,0)" stroke="rgb(0,0,0)" stroke-width="1" opacity="0.47843137254901963" d="M 156.5 448 L 161 448.5 L 156.5 449 L 156.5 448 Z " /><path fill="rgb(0,0,0)" stroke="rgb(0,0,0)" stroke-width="1" opacity="0.47843137254901963" d="M 172.5 448 L 178 448.5 L 172.5 449 L 172.5 448 Z " /><path fill="rgb(0,0,0)" stroke="rgb(0,0,0)" stroke-width="1" opacity="0.47843137254901963" d="M 427.5 448 L 424.5 452 L 427.5 448 Z " /><path fill="rgb(0,0,0)" stroke="rgb(0,0,0)" stroke-width="1" opacity="0.47843137254901963" d="M 86.5 450 L 89.5 454 L 86.5 450 Z " /><path fill="rgb(0,0,0)" stroke="rgb(0,0,0)" stroke-width="1" opacity="0.47843137254901963" d="M 192.5 450 L 193 491.5 L 192 491.5 L 192.5 450 Z " /><path fill="rgb(0,0,0)" stroke="rgb(0,0,0)" stroke-width="1" opacity="0.47843137254901963" d="M 420.5 454 L 419.5 456 L 420.5 454 Z " /><path fill="rgb(0,0,0)" stroke="rgb(0,0,0)" stroke-width="1" opacity="0.47843137254901963" d="M 93.5 456 L 94.5 458 L 93.5 456 Z " /><path fill="rgb(0,0,0)" stroke="rgb(0,0,0)" stroke-width="1" opacity="0.47843137254901963" d="M 415.5 458 L 414.5 460 L 415.5 458 Z " /><path fill="rgb(0,0,0)" stroke="rgb(0,0,0)" stroke-width="1" opacity="0.47843137254901963" d="M 98.5 460 L 99.5 462 L 98.5 460 Z " /><path fill="rgb(0,0,0)" stroke="rgb(0,0,0)" stroke-width="1" opacity="0.47843137254901963" d="M 411.5 461 L 410.5 463 L 411.5 461 Z " /><path fill="rgb(0,0,0)" stroke="rgb(0,0,0)" stroke-width="1" opacity="0.47843137254901963" d="M 102.5 463 L 103.5 465 L 102.5 463 Z " /><path fill="rgb(0,0,0)" stroke="rgb(0,0,0)" stroke-width="1" opacity="0.47843137254901963" d="M 407.5 464 L 406.5 466 L 407.5 464 Z " /><path fill="rgb(0,0,0)" stroke="rgb(0,0,0)" stroke-width="1" opacity="0.47843137254901963" d="M 120.5 475 L 121.5 477 L 120.5 475 Z " /><path fill="rgb(0,0,0)" stroke="rgb(0,0,0)" stroke-width="1" opacity="0.47843137254901963" d="M 318.5 479 L 319 488.5 L 318 488.5 L 318.5 479 Z " /><path fill="rgb(0,0,0)" stroke="rgb(0,0,0)" stroke-width="1" opacity="0.47843137254901963" d="M 189.5 497 L 188.5 499 L 189.5 497 Z " /><path fill="rgb(0,0,0)" stroke="rgb(0,0,0)" stroke-width="1" opacity="0.47843137254901963" d="M 178.5 501 L 181 501.5 L 178.5 502 L 178.5 501 Z " /></svg>