<?xml version="1.0" encoding="UTF-8"?>
<svg version="1.1" xmlns="http://www.w3.org/2000/svg" width="512" height="512">
<path d="M0 0 C0.95349889 -0.00630794 1.90699779 -0.01261588 2.88939059 -0.01911497 C4.47164638 -0.02190797 4.47164638 -0.02190797 6.08586693 -0.02475739 C7.2008246 -0.03055077 8.31578227 -0.03634416 9.46452653 -0.0423131 C13.22619099 -0.0604493 16.98784035 -0.07126666 20.7495327 -0.08200836 C22.75217774 -0.09033396 24.75482279 -0.09866554 26.75746568 -0.10749274 C36.28783386 -0.14942777 45.81822724 -0.17661086 55.34865379 -0.20114899 C56.10073488 -0.20312389 56.85281597 -0.20509879 57.62768739 -0.20713353 C72.55922638 -0.24629714 87.49077368 -0.28000562 102.42234802 -0.30221558 C105.70621439 -0.30718496 108.99008064 -0.31222927 112.27394676 -0.31735992 C113.4982452 -0.31926593 113.4982452 -0.31926593 114.74727695 -0.32121044 C127.96591652 -0.34256549 141.1843073 -0.39155436 154.40282173 -0.45160407 C167.97211003 -0.51273916 181.54127002 -0.54740557 195.11069429 -0.55668879 C202.73021506 -0.56259917 210.34931461 -0.58034621 217.9686985 -0.62807465 C224.45879832 -0.6686914 230.9484082 -0.6855476 237.43862946 -0.67142183 C240.74937884 -0.66495755 244.05886689 -0.67360003 247.36950111 -0.70529556 C250.96266587 -0.73788073 254.55322315 -0.72727915 258.1464138 -0.70590973 C259.18786667 -0.7256175 260.22931953 -0.74532527 261.30233157 -0.76563025 C267.84714574 -0.66734419 271.18277127 0.66557634 275.81550741 5.32329082 C276.37043009 5.92366319 276.92535277 6.52403555 277.49709129 7.14260101 C278.34669646 7.94975681 279.19630163 8.75691261 280.07165241 9.58852768 C280.81516232 10.33036175 281.55867224 11.07219582 282.32471275 11.8365097 C283.19250862 12.70004059 284.06030449 13.56357147 284.9543972 14.45326996 C286.33956032 15.83911285 286.33956032 15.83911285 287.75270653 17.25295258 C288.75698073 18.25422812 289.76145738 19.25530063 290.766119 20.25618744 C293.47051932 22.95182479 296.17173601 25.65062987 298.87207866 28.35033131 C300.56073911 30.03827794 302.25011084 31.72550932 303.93973541 33.41249084 C309.8372697 39.30080395 315.73224623 45.19166355 321.62477684 51.08498383 C327.11553414 56.57634411 332.61187013 62.06207694 338.11079448 67.54525781 C342.83976058 72.2611668 347.56488214 76.98090431 352.28700405 81.70366645 C355.10432064 84.52123815 357.92317303 87.33723044 360.7458992 90.14938354 C363.3941534 92.78798527 366.03760224 95.43130671 368.67738342 98.0783844 C369.64759174 99.04964145 370.61951847 100.01918537 371.59325981 100.98690033 C372.91956502 102.30552512 374.23915117 103.63089795 375.55835533 104.95662689 C376.29922606 105.69695286 377.0400968 106.43727882 377.80341816 107.20003891 C380.90064798 110.75241343 380.62524874 114.11318547 380.63410568 118.63540459 C380.63675751 119.300899 380.63940934 119.9663934 380.64214152 120.65205431 C380.64984432 122.89788987 380.65039406 125.14367084 380.65099144 127.38951874 C380.65500539 129.00959206 380.6594435 130.62966437 380.664271 132.24973547 C380.67624939 136.71412215 380.68188785 141.17849801 380.68645215 145.64289761 C380.69240326 150.45280862 380.70401414 155.26270667 380.71474266 160.07260895 C380.73927502 171.69327883 380.75389353 183.31395301 380.76680273 194.93464082 C380.77051357 198.21507939 380.77448687 201.49551753 380.77855539 204.77595568 C380.80378701 225.13478137 380.82584616 245.49360772 380.83828354 265.8524456 C380.84121336 270.56895576 380.84417501 275.2854659 380.84718895 280.00197601 C380.847935 281.17427956 380.84868105 282.34658311 380.84944971 283.55441101 C380.86211244 302.55924266 380.89534769 321.56398094 380.93699078 340.5687689 C380.97936662 360.06725263 381.00297339 379.56568849 381.0082041 399.06421816 C381.01162279 410.01742546 381.02343205 420.97048676 381.05630684 431.92364883 C381.08424853 441.24859888 381.09533252 450.573373 381.08411138 459.89836167 C381.07890995 464.65851889 381.08190745 469.41830736 381.10657692 474.17841148 C381.12895931 478.53342387 381.12841606 482.88780026 381.10937305 487.24282296 C381.10655751 488.82088238 381.11225722 490.39898393 381.12718599 491.97697525 C381.14620919 494.11813576 381.13456414 496.25700879 381.11512375 498.39811516 C381.11648028 499.58843106 381.11783681 500.77874696 381.11923444 502.00513303 C380.31058861 506.08313407 378.64931 507.52042235 375.49709129 510.14260101 C371.94615054 512.50989485 370.45555581 512.39547713 366.2441349 512.40266323 C364.92575512 512.40972882 363.60737534 512.41679441 362.24904466 512.42407411 C360.77705941 512.42182252 359.30507446 512.41937599 357.83308983 512.41675568 C356.27631235 512.42120559 354.71953713 512.42651881 353.16276526 512.4326244 C348.87324535 512.44684472 344.58379775 512.44846693 340.29425764 512.44802749 C335.67244108 512.44967217 331.05065462 512.46273216 326.42885399 512.47422028 C316.3173143 512.49709703 306.20579557 512.50499382 296.09423351 512.51004672 C289.78289603 512.51330076 283.47156466 512.51982147 277.16023064 512.52704811 C259.69286991 512.54661784 242.22551487 512.56301976 224.75814247 512.56592464 C223.63975172 512.56611221 222.52136096 512.56629978 221.36907957 512.56649304 C219.10172828 512.56685929 216.83437699 512.56722299 214.56702569 512.56758415 C212.87870211 512.56785837 212.87870211 512.56785837 211.15627098 512.56813812 C210.02935127 512.56831867 208.90243157 512.56849922 207.74136278 512.56868524 C189.4782923 512.57222741 171.2153397 512.5992508 152.95231012 512.63663601 C134.21091934 512.67469403 115.46958709 512.69408194 96.72815681 512.69438416 C86.20190055 512.69496931 75.67578488 512.70349829 65.14956474 512.73238182 C56.18661409 512.75686226 47.22385528 512.76420122 38.26088026 512.74913429 C33.68679995 512.74195159 29.11309871 512.74288116 24.53906059 512.76554489 C20.35169741 512.7860941 16.16500571 512.78357294 11.97765014 512.76267005 C10.46281545 512.75916731 8.94793271 512.76411836 7.43316105 512.77837449 C-5.29033707 512.8904029 -5.29033707 512.8904029 -9.88865471 509.72918034 C-13.02819286 506.62287756 -13.46606692 506.1243154 -13.63055921 501.74112827 C-13.63697115 500.23299689 -13.63774167 498.72483599 -13.63433647 497.21669483 C-13.63638911 496.38411609 -13.63844174 495.55153735 -13.64055657 494.69372895 C-13.64625994 491.87347457 -13.64476524 489.05326851 -13.6433506 486.23300934 C-13.64593233 484.20274492 -13.64894495 482.17248101 -13.652354 480.14221781 C-13.66044992 474.53927239 -13.66221501 468.93633975 -13.66295147 463.33338916 C-13.66479755 457.29982906 -13.67234265 451.26627567 -13.67908669 445.23271942 C-13.69339897 431.33927541 -13.69919912 417.44583451 -13.70377863 403.55238498 C-13.70611308 396.68909402 -13.70971558 389.8258039 -13.71347401 382.9625136 C-13.7263113 359.47613316 -13.73703006 335.9897532 -13.74047661 312.50336933 C-13.74069824 311.02841865 -13.74092003 309.55346798 -13.74114196 308.0785173 C-13.7413626 306.59996685 -13.74158308 305.1214164 -13.74180341 303.64286596 C-13.74224597 300.67655043 -13.74269308 297.7102349 -13.74314308 294.74391937 C-13.74325247 294.00844301 -13.74336186 293.27296665 -13.74347457 292.51520312 C-13.74710539 268.66609162 -13.76302546 244.81701051 -13.78633345 220.96791064 C-13.81092152 195.76298099 -13.82464899 170.5580687 -13.82584453 145.3531267 C-13.82601598 142.58694915 -13.82623141 139.82077159 -13.82647896 137.05459404 C-13.82653473 136.37346581 -13.8265905 135.69233759 -13.82664795 134.99056912 C-13.82779934 124.02187632 -13.83882886 113.05321467 -13.85336601 102.0845324 C-13.8677223 91.06180647 -13.87072013 80.03911212 -13.86292604 69.01637719 C-13.85901044 63.04294586 -13.85999341 57.06961947 -13.87398338 51.09620094 C-13.88666788 45.6303204 -13.88557287 40.16462423 -13.87339267 34.69874414 C-13.87142618 32.71887916 -13.87455773 30.73900135 -13.88323703 28.75915442 C-13.89427428 26.07178201 -13.88688043 23.38506669 -13.8748455 20.6977129 C-13.8824407 19.92573139 -13.89003589 19.15374987 -13.89786124 18.35837498 C-13.8385075 12.23570774 -12.55804854 7.50912567 -8.44040871 2.76760101 C-5.48327339 0.287423 -3.78202267 0.01561172 0 0 Z " fill="#E8E8DF" transform="translate(72.50290870666504,-0.14260101318359375)"/>
<path d="M0 0 C130.02 0 260.04 0 394 0 C394 49.17 394 98.34 394 149 C386.7518904 156.2481096 386.7518904 156.2481096 379.74704361 156.26006222 C378.42866383 156.26712781 377.11028405 156.2741934 375.75195336 156.2814731 C374.27996812 156.27922151 372.80798317 156.27677498 371.33599854 156.27415466 C369.77922105 156.27860457 368.22244584 156.2839178 366.66567397 156.29002339 C362.37615406 156.30424371 358.08670646 156.30586592 353.79716635 156.30542648 C349.17534979 156.30707116 344.55356333 156.32013115 339.9317627 156.33161926 C329.82022301 156.35449602 319.70870427 156.36239281 309.59714222 156.36744571 C303.28580474 156.37069974 296.97447337 156.37722046 290.66313934 156.3844471 C273.19577861 156.40401683 255.72842358 156.42041875 238.26105118 156.42332363 C237.14266042 156.4235112 236.02426967 156.42369877 234.87198828 156.42389202 C232.60463699 156.42425828 230.33728569 156.42462198 228.0699344 156.42498314 C226.38161082 156.42525735 226.38161082 156.42525735 224.65917969 156.42553711 C223.53225998 156.42571766 222.40534028 156.42589821 221.24427149 156.42608423 C202.98120101 156.4296264 184.71824841 156.45664979 166.45521882 156.494035 C147.71382805 156.53209302 128.9724958 156.55148093 110.23106551 156.55178314 C99.70480926 156.55236829 89.17869358 156.56089727 78.65247345 156.58978081 C69.6895228 156.61426125 60.72676399 156.62160021 51.76378897 156.60653328 C47.18970866 156.59935058 42.61600742 156.60028015 38.0419693 156.62294388 C33.85460612 156.64349308 29.66791442 156.64097192 25.48055884 156.62006903 C23.96572415 156.6165663 22.45084141 156.62151735 20.93606976 156.63577347 C8.21257164 156.74780189 8.21257164 156.74780189 3.614254 153.58657932 C1 151 1 151 0 149 C0 99.83 0 50.66 0 0 Z " fill="#EC6731" transform="translate(59,356)"/>
<path d="M0 0 C4.08751337 3.50358289 7.94209015 6.81701355 11.71409607 10.58711243 C12.58196243 11.45215897 13.4498288 12.31720551 14.34399414 13.20846558 C15.27260254 14.13909821 16.20121094 15.06973083 17.15795898 16.02856445 C18.16369866 17.03294676 19.16965043 18.03711673 20.17579651 19.04109192 C22.88837114 21.7491356 25.59780706 24.4602988 28.30652499 27.17219949 C31.1450734 30.01328981 33.98607225 32.85192811 36.82667542 35.69096375 C41.58864173 40.45111549 46.3485057 45.2133618 51.10717773 49.97680664 C56.61482172 55.48991065 62.12608424 60.99937768 67.63920349 66.50700599 C72.3757511 71.2390245 77.11035845 75.9729777 81.84333092 80.70857209 C84.66917623 83.53597889 87.49569886 86.36269967 90.3239727 89.18767738 C92.97660894 91.83743725 95.62681051 94.48960779 98.27510643 97.14370537 C99.24983486 98.11976185 100.22542598 99.09495764 101.20191574 100.06925201 C102.52850791 101.39313496 103.8517524 102.72036997 105.17478943 104.04780579 C106.28942645 105.16300834 106.28942645 105.16300834 107.42658138 106.30074024 C109 108 109 108 109 109 C73.03 109 37.06 109 0 109 C0 73.03 0 37.06 0 0 Z " fill="#D9D7CA" transform="translate(343,1)"/>
<path d="M0 0 C5.28 0 10.56 0 16 0 C16 30.69 16 61.38 16 93 C10.72 93 5.44 93 0 93 C-0.33 73.53 -0.66 54.06 -1 34 C-3.784375 40.9609375 -3.784375 40.9609375 -6.625 48.0625 C-9.7890625 55.97265625 -9.7890625 55.97265625 -10.57485962 57.93385315 C-11.95860489 61.38883128 -13.33572206 64.84623752 -14.70214844 68.30810547 C-14.97634613 69.00036728 -15.25054382 69.69262909 -15.53305054 70.40586853 C-16.05845648 71.73280363 -16.58183364 73.06054427 -17.10293579 74.38917542 C-18.88759794 78.88759794 -18.88759794 78.88759794 -20 80 C-24.62 80 -29.24 80 -34 80 C-40.27 64.49 -46.54 48.98 -53 33 C-53.33 52.47 -53.66 71.94 -54 92 C-58.95 92 -63.9 92 -69 92 C-69 61.97 -69 31.94 -69 1 C-63.72 1 -58.44 1 -53 1 C-52.29617188 2.65 -51.59234375 4.3 -50.8671875 6 C-43.01503569 24.37909419 -35.0352464 42.70028183 -27 61 C-25.44515501 58.66773251 -24.34195953 56.69549669 -23.23168945 54.16552734 C-22.72524651 53.01689713 -22.72524651 53.01689713 -22.20857239 51.84506226 C-21.84712631 51.01705109 -21.48568024 50.18903992 -21.11328125 49.3359375 C-20.73318405 48.47046295 -20.35308685 47.6049884 -19.96147156 46.71328735 C-19.15401064 44.87293734 -18.3479627 43.03196683 -17.54321289 41.19042969 C-16.33770834 38.43266764 -15.12726184 35.67711921 -13.91601562 32.921875 C-9.12763712 22.00580436 -4.49650833 11.03962018 0 0 Z " fill="#FEFBFA" transform="translate(335,392)"/>
<path d="M0 0 C5.28 0 10.56 0 16 0 C16 13.53 16 27.06 16 41 C28.87 41 41.74 41 55 41 C55 27.47 55 13.94 55 0 C60.28 0 65.56 0 71 0 C71 30.69 71 61.38 71 93 C65.72 93 60.44 93 55 93 C55 79.14 55 65.28 55 51 C42.13 51 29.26 51 16 51 C16 64.86 16 78.72 16 93 C10.72 93 5.44 93 0 93 C0 62.31 0 31.62 0 0 Z " fill="#FDF6F3" transform="translate(89,392)"/>
<path d="M0 0 C3.0625 2.0625 3.0625 2.0625 5 5 C5.45904924 8.99642865 5.53044655 11.18810915 3.3034668 14.59667969 C2.04530151 15.87140137 2.04530151 15.87140137 0.76171875 17.171875 C0.28345139 17.6653241 -0.19481598 18.15877319 -0.68757629 18.66717529 C-2.44042381 20.46334003 -4.22017216 22.23057336 -6 24 C-7.52230554 25.53874075 -9.04355765 27.07852412 -10.56396484 28.61914062 C-15.74669293 33.85475044 -20.9657686 39.05333896 -26.1875 44.25 C-28.01651013 46.07398404 -29.84528803 47.898201 -31.67382812 49.72265625 C-36.11321247 54.15112532 -40.55545133 58.57671435 -45 63 C-40.08638084 68.93202738 -34.76690969 74.34708711 -29.296875 79.765625 C-27.89294491 81.16377038 -26.48901755 82.56191852 -25.08525467 83.96023178 C-22.64231212 86.3923111 -20.19604726 88.82104391 -17.75 91.25 C-14.81334331 94.1662449 -11.87730173 97.08309064 -8.94512939 100.00384521 C-7.1245027 101.81693889 -5.30161554 103.62776611 -3.47625732 105.43609619 C-2.65490295 106.25414734 -1.83354858 107.07219849 -0.98730469 107.91503906 C-0.26371765 108.63338928 0.45986938 109.3517395 1.2053833 110.09185791 C4.18320989 113.25805839 5.0082696 114.47901497 4.9375 118.9375 C4.43428034 122.07828477 4.02369594 122.97212243 1.875 125.5 C-2.03745968 127.54128331 -3.62113048 127.9332017 -8 127 C-10.15881348 125.34823608 -10.15881348 125.34823608 -12.52539062 123.15380859 C-13.40839844 122.33507263 -14.29140625 121.51633667 -15.20117188 120.67279053 C-20.00158446 116.08855144 -24.71839868 111.42515046 -29.40625 106.7265625 C-30.46319292 105.67029526 -31.52028406 104.61417633 -32.57751465 103.55819702 C-34.77074831 101.36642341 -36.96219889 99.17288733 -39.15234375 96.97802734 C-41.95763237 94.16699271 -44.7674548 91.36053918 -47.57859039 88.55535316 C-49.75251964 86.38503349 -51.9240667 84.2123429 -54.09489441 82.03892136 C-55.13077964 81.00237051 -56.16740418 79.96655795 -57.20478821 78.93150711 C-58.64740822 77.49142545 -60.08648359 76.04779552 -61.52539062 74.60400391 C-62.3435022 73.78509674 -63.16161377 72.96618958 -64.0045166 72.12246704 C-67.39113323 68.52034127 -68.53829125 66.06749652 -68.39190483 61.06698608 C-67.69957408 57.41549235 -65.28996259 55.16921301 -62.72680664 52.67578125 C-62.16580261 52.09915237 -61.60479858 51.5225235 -61.02679443 50.92842102 C-59.17430211 49.03575558 -57.2940987 47.17382435 -55.41015625 45.3125 C-54.10782186 44.00223221 -52.80660386 42.69085391 -51.50645447 41.37841797 C-48.77957021 38.63524519 -46.03851987 35.9072826 -43.28686523 33.18896484 C-39.76715649 29.70922274 -36.28715859 26.19262466 -32.81711674 22.66343689 C-30.1384701 19.9483164 -27.43887341 17.25482356 -24.73263359 14.56723022 C-23.44093509 13.27901196 -22.15599318 11.98398087 -20.87812996 10.68203735 C-19.08556093 8.86177971 -17.26647856 7.0728864 -15.43774414 5.2890625 C-14.91840805 4.74993729 -14.39907196 4.21081207 -13.86399841 3.65534973 C-9.60426933 -0.40401029 -5.62227253 -1.06678733 0 0 Z " fill="#EB6832" transform="translate(210,147)"/>
<path d="M0 0 C2.33200195 1.74525738 4.19388301 3.35129127 6.21069336 5.40258789 C6.78717621 5.96534424 7.36365906 6.52810059 7.95761108 7.10791016 C9.85060106 8.96442639 11.72071422 10.842141 13.58984375 12.72265625 C14.90190458 14.02559117 16.21470597 15.32778074 17.5282135 16.6292572 C20.27417583 19.35737037 23.00851239 22.09652554 25.7355957 24.84350586 C29.22822443 28.35912847 32.75157462 31.84201629 36.28475094 35.31682682 C39.00208353 37.99743583 41.70052105 40.69645718 44.39383125 43.40118217 C45.68545067 44.69310796 46.98328149 45.97885512 48.28739738 47.25816536 C50.10980871 49.05075177 51.90477103 50.867065 53.69506836 52.69165039 C54.23576462 53.21301071 54.77646088 53.73437103 55.33354187 54.27153015 C58.06681968 57.11535034 59.35102044 59.27142141 59.5043335 63.15951538 C59.01167203 66.91111787 58.82613584 68.17127571 56.2355957 70.75610352 C55.59200104 71.41885284 54.94840637 72.08160217 54.28530884 72.76443481 C53.53115692 73.50217133 52.777005 74.23990784 52 75 C50.67053849 76.36280567 49.34109236 77.72562637 48.01193523 79.0887289 C45.43815689 81.71327613 42.83247984 84.3058398 40.23046875 86.90234375 C39.10168627 88.03180112 37.97305216 89.16140679 36.84455872 90.29115295 C34.49540344 92.64177288 32.14447305 94.99059853 29.79223633 97.33813477 C26.77478656 100.34984833 23.76190201 103.36608298 20.75030041 106.38364315 C18.42817829 108.70937067 16.10368995 111.03272141 13.77846718 113.35534859 C12.66572964 114.46741884 11.55373503 115.58023298 10.44249535 116.69379997 C8.89660164 118.24222409 7.34755509 119.78742241 5.79760742 121.33178711 C4.91715256 122.21144638 4.03669769 123.09110565 3.12956238 123.99742126 C0.3987468 126.56540108 -0.53940789 126.9478575 -4.3125 127.375 C-8 127 -8 127 -10.875 124.875 C-13.26814883 121.6372104 -14.08209148 120.02248275 -14 116 C-11.54032325 111.85421278 -8.73209534 108.48631459 -5.32324219 105.09619141 C-4.40258972 104.17569 -3.48193726 103.2551886 -2.53338623 102.30679321 C-1.53799027 101.3216074 -0.54248397 100.33653305 0.453125 99.3515625 C1.4791771 98.32924565 2.50478475 97.30648255 3.52996826 96.28329468 C6.21507142 93.60578769 8.90612817 90.93434452 11.59851074 88.26416016 C14.3505768 85.53263949 17.0969126 82.79537057 19.84375 80.05859375 C25.22360509 74.70011762 30.60976891 69.34804068 36 64 C34.46913664 60.35207042 32.29576833 58.08708571 29.47436523 55.3425293 C28.53676865 54.42444992 27.59917206 53.50637054 26.63316345 52.56047058 C26.13213545 52.07416861 25.63110744 51.58786663 25.11489677 51.08682823 C23.54143864 49.55754528 21.97615484 48.02033463 20.4131012 46.48042297 C15.96965278 42.10404071 11.51829207 37.73597943 7.04614258 33.38891602 C4.30765689 30.72589122 1.58414595 28.0483089 -1.13044548 25.36094093 C-2.16514307 24.34231012 -3.20535958 23.32925294 -4.25119209 22.32205772 C-5.71575551 20.91067709 -7.16021556 19.47852604 -8.60375977 18.0456543 C-9.4304567 17.23831345 -10.25715363 16.4309726 -11.10890198 15.59916687 C-13.46008708 12.36764616 -13.79987306 9.95439092 -14 6 C-10.93551 -0.49102946 -6.56946845 -1.57143759 0 0 Z " fill="#EB6731" transform="translate(320,147)"/>
<path d="M0 0 C23.1 0 46.2 0 70 0 C70 3.63 70 7.26 70 11 C60.76 11 51.52 11 42 11 C42 37.73 42 64.46 42 92 C37.05 92 32.1 92 27 92 C27 65.27 27 38.54 27 11 C18.09 11 9.18 11 0 11 C0 7.37 0 3.74 0 0 Z " fill="#FEF9F8" transform="translate(178,392)"/>
<path d="M0 0 C4.95 0 9.9 0 15 0 C15 26.4 15 52.8 15 80 C29.19 80 43.38 80 58 80 C58 83.96 58 87.92 58 92 C38.86 92 19.72 92 0 92 C0 61.64 0 31.28 0 0 Z " fill="#FEFBFA" transform="translate(374,393)"/>
</svg>
