<?xml version="1.0" encoding="UTF-8"?>
<svg version="1.1" xmlns="http://www.w3.org/2000/svg" width="48" height="48">
<path d="M0 0 C15.84 0 31.68 0 48 0 C48 15.84 48 31.68 48 48 C32.16 48 16.32 48 0 48 C0 32.16 0 16.32 0 0 Z " fill="#9A445C" transform="translate(0,0)"/>
<path d="M0 0 C7.59 0 15.18 0 23 0 C22.01 3.63 21.02 7.26 20 11 C19.67 12.32 19.34 13.64 19 15 C19.66 15 20.32 15 21 15 C22.29004296 17.58008592 22.20410224 19.55741574 22.25 22.4375 C22.27578125 23.40558594 22.3015625 24.37367187 22.328125 25.37109375 C22 28 22 28 20.87890625 29.72265625 C18.28373769 31.48693924 15.70694945 32.16416624 12.6875 33 C8.14061702 34.26742383 4.20495787 35.86790869 0 38 C-4.11945199 38.67256359 -5.45390165 38.39176621 -8.875 35.9375 C-11.52524793 32.27392198 -11.47544716 30.43750685 -11 26 C-10.72057545 24.32345271 -10.39171753 22.65391846 -10 21 C-9.855625 20.113125 -9.71125 19.22625 -9.5625 18.3125 C-9 16 -9 16 -7 14 C-3.70285207 14.32971479 -2.3773161 14.6226839 0 17 C-0.3557806 20.37991574 -1.35715799 23.04288438 -3 26 C-1.35 25.01 0.3 24.02 2 23 C1.79375 22.05125 1.5875 21.1025 1.375 20.125 C1.25125 19.09375 1.1275 18.0625 1 17 C1.66 16.34 2.32 15.68 3 15 C2.58307219 9.7884024 1.27966308 5.11865233 0 0 Z " fill="#E8D6DB" transform="translate(18,5)"/>
<path d="M0 0 C7.59 0 15.18 0 23 0 C22.34 2.64 21.68 5.28 21 8 C20.01 8 19.02 8 18 8 C18.33 6.35 18.66 4.7 19 3 C14.05 3 9.1 3 4 3 C4.99 6.3 5.98 9.6 7 13 C7.99 12.67 8.98 12.34 10 12 C11.1875 15.25 11.1875 15.25 12 19 C10.26733389 22.66917529 7.43657415 24.03624335 4 26 C2.31522656 27.31037934 0.64351457 28.63823078 -1 30 C-3.46800047 28.84826645 -5.04783565 27.95216435 -7 26 C-7 28.64 -7 31.28 -7 34 C-0.94565906 34.67270455 2.92553162 32.87687061 8.34375 30.2421875 C11.5341991 28.75018336 14.59051368 27.85237158 18 27 C18.99 26.67 19.98 26.34 21 26 C20.7421875 27.91015625 20.7421875 27.91015625 20 30 C18.3203125 30.87109375 18.3203125 30.87109375 16.125 31.4375 C11.35579491 32.80664979 7.10393004 34.78780402 2.67578125 37.01171875 C-0.43296477 38.15991254 -2.70941462 38.31596842 -6 38 C-8.875 35.9375 -8.875 35.9375 -11 33 C-11.45108202 28.78990119 -10.97042817 25.09736337 -10 21 C-9.855625 20.113125 -9.71125 19.22625 -9.5625 18.3125 C-9 16 -9 16 -7 14 C-3.70285207 14.32971479 -2.3773161 14.6226839 0 17 C-0.3557806 20.37991574 -1.35715799 23.04288438 -3 26 C-1.35 25.01 0.3 24.02 2 23 C1.79375 22.05125 1.5875 21.1025 1.375 20.125 C1.25125 19.09375 1.1275 18.0625 1 17 C1.66 16.34 2.32 15.68 3 15 C2.58307219 9.7884024 1.27966308 5.11865233 0 0 Z " fill="#EFE3E7" transform="translate(18,5)"/>
<path d="M0 0 C0.99 0 1.98 0 3 0 C3.33 0.66 3.66 1.32 4 2 C6.52733235 2.65555119 6.52733235 2.65555119 9 3 C8.67 4.65 8.34 6.3 8 8 C7.071875 8.226875 6.14375 8.45375 5.1875 8.6875 C1.73320126 9.64041 -1.29436494 11.09573638 -4.5 12.6875 C-9.26580246 14.91941851 -11.97620794 15.63819306 -17 14 C-18.38125018 11.23749964 -18.19079306 9.05268901 -18 6 C-17.34 5.34 -16.68 4.68 -16 4 C-15.01 5.65 -14.02 7.3 -13 9 C-9.01636642 7.67212214 -6.89369166 5.99014805 -4 3 C-3.01 2.67 -2.02 2.34 -1 2 C-0.67 1.34 -0.34 0.68 0 0 Z " fill="#9D4A62" transform="translate(28,25)"/>
<path d="M0 0 C4.95 0 9.9 0 15 0 C14.25386143 3.73069283 13.46826597 6.57404607 12 10 C11.54625 9.38125 11.0925 8.7625 10.625 8.125 C9.02891081 5.94080167 9.02891081 5.94080167 7 4 C6.01 5.98 5.02 7.96 4 10 C1.7448078 7.7448078 1.02276532 5.9952413 0 3 C0 2.01 0 1.02 0 0 Z " fill="#9D4961" transform="translate(22,8)"/>
<path d="M0 0 C0.33 0.99 0.66 1.98 1 3 C-2.97761239 5.78432867 -7.00664853 6.99722123 -11.6171875 8.3046875 C-14.15385713 9.04489601 -16.57563054 9.9494399 -19 11 C-18.7578125 9.1328125 -18.7578125 9.1328125 -18 7 C-16.1796875 5.8046875 -16.1796875 5.8046875 -13.875 4.875 C-13.06675781 4.54628906 -12.25851563 4.21757813 -11.42578125 3.87890625 C-8.31352611 2.75127757 -5.19914021 1.84875148 -2 1 C-1.34 0.67 -0.68 0.34 0 0 Z " fill="#F6EFF1" transform="translate(38,31)"/>
<path d="M0 0 C2.89932357 2.39509338 3.50168276 4.31245243 4 8 C6.97 8 9.94 8 13 8 C12.34 9.32 11.68 10.64 11 12 C7.0239197 12.46233492 5.43148796 12.30954571 2.125 9.9375 C-0.47048413 6.34962488 -0.4247346 4.3322929 0 0 Z " fill="#F1E6E9" transform="translate(7,31)"/>
</svg>
