<?xml version="1.0" encoding="UTF-8"?>
<svg version="1.1" xmlns="http://www.w3.org/2000/svg" width="32" height="32">
<path d="M0 0 C0.84949219 0.53625 1.69898437 1.0725 2.57421875 1.625 C3.43660156 2.16125 4.29898437 2.6975 5.1875 3.25 C7.26171875 4.625 7.26171875 4.625 8.26171875 5.625 C8.9282897 11.0770473 9.11824976 16.18765439 8.26171875 21.625 C5.72600561 24.78137932 2.97311096 26.13798524 -0.73828125 27.625 C-1.44210938 27.99882812 -2.1459375 28.37265625 -2.87109375 28.7578125 C-6.59226674 30.48605602 -9.61085178 28.96086597 -13.34765625 27.84765625 C-16.64442757 26.46468862 -18.43245909 25.38499925 -20.73828125 22.625 C-22.63195709 16.90933208 -22.73495726 10.32107295 -20.73828125 4.625 C-14.85838474 -1.87963551 -7.93096729 -3.98245433 0 0 Z " fill="#52A144" transform="translate(22.73828125,2.375)"/>
<path d="M0 0 C2.19204321 2.80266372 3.99758914 5.64263419 5.69921875 8.765625 C6.18583984 9.65507812 6.67246094 10.54453125 7.17382812 11.4609375 C7.67333984 12.38132812 8.17285156 13.30171875 8.6875 14.25 C9.19861328 15.18585937 9.70972656 16.12171875 10.23632812 17.0859375 C11.49367841 19.3891212 12.74812759 21.69383566 14 24 C12 25 12 25 9.1796875 24.19921875 C5.38428674 22.46302479 2.86270144 21.06902226 0 18 C-1.5538688 12.16146679 -0.67679149 5.92192553 0 0 Z " fill="#3F873F" transform="translate(2,7)"/>
<path d="M0 0 C4.23076923 5.64102564 4.23076923 5.64102564 5 10 C3.95448211 12.63767712 2.61250279 14.62867236 1 17 C0.67 17 0.34 17 0 17 C0 11.39 0 5.78 0 0 Z " fill="#3E9737" transform="translate(2,7)"/>
</svg>
