<?xml version="1.0" encoding="UTF-8"?>
<svg version="1.1" xmlns="http://www.w3.org/2000/svg" width="512" height="512">
<path d="M0 0 C0.78568359 0.00644531 1.57136719 0.01289062 2.38085938 0.01953125 C16.09397576 0.44631128 25.92062364 7.78857618 35.1875 17.375 C55.13895197 40.90645041 64.32790494 72.16210921 71.6875 101.5 C71.94806686 102.53574158 71.94806686 102.53574158 72.21389771 103.59240723 C73.94529501 110.52296015 75.60438787 117.37098721 76.25 124.5 C76.82516357 124.29431396 77.40032715 124.08862793 77.99291992 123.87670898 C100.82374713 115.79438552 124.1899201 109.53788888 148.25 106.5 C149.21679688 106.36980469 150.18359375 106.23960938 151.1796875 106.10546875 C173.07759307 103.60950687 197.21205087 104.55899831 215.25 118.5 C222.42709202 125.03675667 226.76816318 133.31183859 227.5234375 143.01171875 C228.6795303 176.10237506 206.43295669 202.39438641 185.25 225.5 C184.26529184 226.58954274 183.28093497 227.67940304 182.296875 228.76953125 C177.43984079 234.12330759 172.61571885 239.3008961 167.05859375 243.9453125 C165.10315214 245.62623207 163.30577866 247.40986191 161.5 249.25 C159.21731752 251.57447072 156.95514406 253.66050204 154.25 255.5 C155.64506426 258.75042891 157.21783394 260.57371792 159.9375 262.8125 C162.66185164 265.11469986 165.25661871 267.4492996 167.75 270 C170.15210322 272.45123715 172.63267724 274.71780896 175.25 276.9375 C178.58095361 279.81625915 181.4502292 282.87139677 184.2890625 286.23046875 C186.5938664 288.89798084 189.01687294 291.43718711 191.4375 294 C209.63296673 313.64265426 228.09813565 339.61379754 227.72021484 367.37548828 C227.27763756 377.72990328 223.55652128 386.1096563 216.25 393.5 C199.48297746 407.73083426 177.37425497 408.77263256 156.37109375 407.29785156 C130.55687556 405.04463423 99.79332053 400.27166026 76.25 388.5 C76.14187988 389.28979248 76.03375977 390.07958496 75.92236328 390.89331055 C74.77491129 398.84502368 73.17348468 406.54681793 71.125 414.3125 C70.66649658 416.05575562 70.66649658 416.05575562 70.19873047 417.83422852 C61.60012162 449.8928899 49.68029137 490.2865756 19.25 508.5 C18.4971875 508.95246094 17.744375 509.40492188 16.96875 509.87109375 C8.27009807 514.17573486 -2.95637561 513.9126028 -12.2265625 511.65234375 C-33.35520244 503.59943834 -45.50021743 482.42896284 -54.4375 462.875 C-61.73673325 446.28510176 -66.78628698 429.04475699 -71.1875 411.5 C-71.36121124 410.80950562 -71.53492249 410.11901123 -71.71389771 409.40759277 C-73.44529501 402.47703985 -75.10438787 395.62901279 -75.75 388.5 C-76.65202148 388.81638428 -76.65202148 388.81638428 -77.57226562 389.13916016 C-114.68814885 402.06519432 -165.32155214 418.21481269 -203.75 401.5 C-215.19219588 395.53609684 -222.34514653 388.01363539 -226.328125 375.71484375 C-230.26246485 355.05955954 -221.50393671 335.5197572 -210.26171875 318.70703125 C-202.60478888 307.62133594 -193.85625227 297.41099084 -184.75 287.5 C-184.24388184 286.94344727 -183.73776367 286.38689453 -183.21630859 285.81347656 C-171.67281973 273.12010106 -171.67281973 273.12010106 -165.73828125 268.1640625 C-163.18403126 266.02632086 -160.72135845 263.79536372 -158.25 261.5625 C-156.96609375 260.40427734 -156.96609375 260.40427734 -155.65625 259.22265625 C-154.71265625 258.36994141 -154.71265625 258.36994141 -153.75 257.5 C-155.13764013 254.2811478 -156.68301849 252.44402018 -159.37109375 250.21484375 C-163.62900048 246.60845152 -167.73506388 242.87100726 -171.8125 239.0625 C-172.48087891 238.44568359 -173.14925781 237.82886719 -173.83789062 237.19335938 C-177.87072405 233.42703001 -181.59038221 229.51440436 -185.17993164 225.32397461 C-187.1957957 222.9821117 -189.31845819 220.74847717 -191.4375 218.5 C-205.10131509 203.46565026 -216.60294845 186.58171135 -223.75 167.5 C-224.0903125 166.60152344 -224.430625 165.70304688 -224.78125 164.77734375 C-228.23124519 154.18777518 -228.54493652 141.22093416 -224.06640625 130.921875 C-217.59089161 119.00846527 -208.10904308 112.66828482 -195.37109375 108.5 C-159.75842077 98.66521652 -108.55483285 108.09758358 -75.75 124.5 C-75.65275635 123.75081299 -75.5555127 123.00162598 -75.45532227 122.22973633 C-74.16187674 113.03151285 -72.08097382 104.14549902 -69.6875 95.1875 C-69.49125031 94.44799103 -69.29500061 93.70848206 -69.09280396 92.94656372 C-65.49096046 79.45646769 -61.17674547 66.37802747 -55.75 53.5 C-55.41645508 52.70335937 -55.08291016 51.90671875 -54.73925781 51.0859375 C-46.23333932 31.11184034 -33.80336773 10.49726393 -12.9609375 1.84375 C-8.61977233 0.28187094 -4.58845128 -0.03972685 0 0 Z M-21.90234375 42.5390625 C-36.77343317 65.10549674 -43.95661148 93.30011674 -49.8125 119.375 C-50.0288208 120.32584473 -50.2451416 121.27668945 -50.46801758 122.25634766 C-50.65517334 123.1385498 -50.8423291 124.02075195 -51.03515625 124.9296875 C-51.19894775 125.69522949 -51.36273926 126.46077148 -51.53149414 127.24951172 C-51.79908546 130.00555286 -51.6944816 131.88293715 -50.75 134.5 C-48.58694606 136.02748783 -48.58694606 136.02748783 -45.7734375 137.0078125 C-44.1941748 137.64444824 -44.1941748 137.64444824 -42.58300781 138.29394531 C-41.44186523 138.73319336 -40.30072266 139.17244141 -39.125 139.625 C-28.87977236 143.72593301 -18.93608736 148.15118723 -9.13818359 153.23486328 C-8.25211426 153.67813965 -7.36604492 154.12141602 -6.453125 154.578125 C-5.30312012 155.17222168 -5.30312012 155.17222168 -4.12988281 155.77832031 C0.84101309 157.28570319 5.08455741 155.32854841 9.53125 153.09375 C10.52833984 152.60140869 11.52542969 152.10906738 12.55273438 151.60180664 C13.60783203 151.07321045 14.66292969 150.54461426 15.75 150 C25.19657032 145.32902529 34.69093586 141.11013217 44.60742188 137.53125 C45.46916016 137.20253906 46.33089844 136.87382812 47.21875 136.53515625 C48.35473633 136.12342163 48.35473633 136.12342163 49.51367188 135.70336914 C51.46580927 134.60085243 51.46580927 134.60085243 52.0625 132.20605469 C52.26564086 129.2742666 51.94741645 127.02777677 51.28125 124.16796875 C51.04374023 123.13470459 50.80623047 122.10144043 50.56152344 121.03686523 C50.2937207 119.93157471 50.02591797 118.82628418 49.75 117.6875 C49.47446289 116.53258057 49.19892578 115.37766113 48.91503906 114.18774414 C37.83321734 67.12336465 37.83321734 67.12336465 10.25 28.5 C-4.27004671 20.11805733 -13.75743479 31.03862843 -21.90234375 42.5390625 Z M-200.75 140.6875 C-204.03765359 149.93402573 -200.73324477 158.96255631 -196.75 167.5 C-189.66178742 181.52592453 -179.6536839 193.59312347 -169.015625 205.05078125 C-167.04242483 207.18387867 -165.13705297 209.35358987 -163.25 211.5625 C-157.23426907 218.46997458 -150.67969672 224.90021675 -143.6953125 230.82421875 C-142.30546325 232.02149852 -140.94922259 233.25824528 -139.6171875 234.51953125 C-138.91851562 235.17308594 -138.21984375 235.82664062 -137.5 236.5 C-136.87609375 237.098125 -136.2521875 237.69625 -135.609375 238.3125 C-133.85304058 239.6781078 -133.85304058 239.6781078 -131.8671875 239.453125 C-128.91025543 238.12196001 -126.65675264 236.27801891 -124.125 234.25 C-112.74660057 225.27879209 -100.97234535 216.81253277 -88.83984375 208.890625 C-86.84960523 207.66525939 -86.84960523 207.66525939 -85.75 206.5 C-85.51571725 205.01198634 -85.34179509 203.51439384 -85.19335938 202.01538086 C-85.09655884 201.06026108 -84.9997583 200.1051413 -84.90002441 199.12107849 C-84.79895386 198.07952103 -84.6978833 197.03796356 -84.59375 195.96484375 C-84.4865564 194.89762589 -84.37936279 193.83040802 -84.2689209 192.73085022 C-83.92511247 189.3001346 -83.58735308 185.86885588 -83.25 182.4375 C-82.91147125 179.0312651 -82.57169572 175.62515819 -82.2310791 172.21913147 C-82.0192321 170.09675052 -81.80879695 167.97422802 -81.59997559 165.85154724 C-81.05887206 160.38919949 -80.45908068 154.94316556 -79.75 149.5 C-102.19229758 141.54675379 -125.13992557 134.8961557 -148.75 131.5 C-149.61238281 131.36980469 -150.47476563 131.23960937 -151.36328125 131.10546875 C-167.28537628 129.09848198 -189.03734063 127.87677882 -200.75 140.6875 Z M80.25 149.5 C80.36069824 150.44504395 80.47139648 151.39008789 80.58544922 152.36376953 C80.91553707 155.18584595 81.24267499 158.00825092 81.56860352 160.83081055 C81.93924275 164.03893339 82.3184895 167.2458905 82.70288086 170.45239258 C83.53020103 177.44927493 84.32357691 184.39488059 84.57421875 191.44140625 C84.60321369 200.84001743 84.60321369 200.84001743 88.21875 209.18359375 C91.10058643 211.34063095 94.0436277 212.86409577 97.25 214.5 C100.03735787 216.33606051 102.7317522 218.2963615 105.4375 220.25 C106.8929588 221.27252037 108.34869109 222.29465155 109.8046875 223.31640625 C114.99283902 226.99754508 120.05625891 230.84383664 125.07299805 234.75488281 C125.694729 235.23151367 126.31645996 235.70814453 126.95703125 236.19921875 C127.4981958 236.62033936 128.03936035 237.04145996 128.59692383 237.4753418 C130.52713664 238.67178297 131.98783676 239.25020257 134.25 239.5 C136.49420702 237.7788331 138.38577869 236.1074891 140.375 234.125 C141.5384423 233.0058653 142.70251071 231.88738116 143.8671875 230.76953125 C144.44049805 230.21217285 145.01380859 229.65481445 145.60449219 229.08056641 C147.84682149 226.92673259 150.16894226 224.86953057 152.5 222.8125 C159.91520129 216.15444244 166.84345483 209.13203961 173.25 201.5 C173.70890625 200.96552246 174.1678125 200.43104492 174.640625 199.88037109 C195.44686794 175.66965739 195.44686794 175.66965739 202.65234375 145.61328125 C201.95673849 141.95966529 200.85568405 140.16772414 198.25 137.5 C167.06430245 117.06995361 111.24656887 137.54211621 80.25 149.5 Z M-56.75 159.5 C-57.74 169.4 -58.73 179.3 -59.75 189.5 C-52.51297853 185.88148926 -45.52136544 182.33926412 -38.625 178.1875 C-37.16434091 177.31593948 -35.70341658 176.4448233 -34.2421875 175.57421875 C-33.61683105 175.19869873 -32.99147461 174.82317871 -32.34716797 174.4362793 C-31.17240834 173.74762091 -29.96796898 173.10898449 -28.75 172.5 C-28.75 171.84 -28.75 171.18 -28.75 170.5 C-32.85019767 168.657695 -36.95577608 166.82770545 -41.0625 165 C-42.81336914 164.21302734 -42.81336914 164.21302734 -44.59960938 163.41015625 C-45.71787109 162.91386719 -46.83613281 162.41757813 -47.98828125 161.90625 C-49.01993408 161.44541016 -50.05158691 160.98457031 -51.11450195 160.50976562 C-53.7465169 159.32111056 -53.7465169 159.32111056 -56.75 159.5 Z M48.48828125 161.90625 C47.37001953 162.40253906 46.25175781 162.89882812 45.09960938 163.41015625 C43.93236328 163.93480469 42.76511719 164.45945313 41.5625 165 C40.38365234 165.52464844 39.20480469 166.04929688 37.99023438 166.58984375 C35.07458527 167.88831096 32.16132769 169.19187927 29.25 170.5 C29.25 171.16 29.25 171.82 29.25 172.5 C29.97364746 172.89940796 29.97364746 172.89940796 30.71191406 173.30688477 C40.28942539 178.59774248 49.83440846 183.92449285 59.25 189.5 C60.41302587 186.0109224 60.11867206 183.94108598 59.69140625 180.30078125 C59.55283203 179.09228516 59.41425781 177.88378906 59.27148438 176.63867188 C59.12001953 175.37603516 58.96855469 174.11339844 58.8125 172.8125 C58.66490234 171.53826172 58.51730469 170.26402344 58.36523438 168.95117188 C57.99937324 165.80004534 57.62738953 162.64976321 57.25 159.5 C53.69785917 159.5 51.72732485 160.45936758 48.48828125 161.90625 Z M-6.40625 187.74609375 C-7.79650391 188.49536133 -7.79650391 188.49536133 -9.21484375 189.25976562 C-10.21644531 189.81341797 -11.21804687 190.36707031 -12.25 190.9375 C-13.29285156 191.50791016 -14.33570313 192.07832031 -15.41015625 192.66601562 C-27.43773864 199.31881651 -39.25868493 206.38715342 -50.85546875 213.765625 C-53.75 215.5 -53.75 215.5 -56.30078125 216.546875 C-58.78417463 217.62315917 -60.09848806 218.3420708 -61.75 220.5 C-62.75756347 225.05691877 -62.82604409 229.51052303 -62.77429199 234.15087891 C-62.74965381 236.53347745 -62.77706757 238.91063858 -62.81738281 241.29296875 C-62.88014974 245.5017994 -62.89075047 249.70873073 -62.88037109 253.91796875 C-62.87500529 256.49745557 -62.88035812 259.07676836 -62.88671875 261.65625 C-62.89187785 265.81577484 -62.84239983 269.97237813 -62.77099609 274.13122559 C-62.75045523 276.44864138 -62.79306559 278.75839075 -62.84375 281.07519531 C-62.9956605 288.3478001 -62.9956605 288.3478001 -60.03759766 294.76757812 C-57.61958021 296.62021472 -55.24326629 297.92818052 -52.5 299.25 C-51.55922607 299.76473877 -50.61845215 300.27947754 -49.64916992 300.80981445 C-47.68223457 301.88255439 -45.70224601 302.93167782 -43.71044922 303.95751953 C-39.96092204 305.91113265 -36.32368003 308.0318493 -32.67504883 310.16625977 C-30.08340919 311.67532495 -27.47530654 313.15069908 -24.859375 314.6171875 C-21.42886194 316.54178121 -18.02716795 318.50691049 -14.640625 320.5078125 C-13.03133768 321.44285926 -11.42196654 322.37776176 -9.8125 323.3125 C-9.08522705 323.75166748 -8.3579541 324.19083496 -7.60864258 324.64331055 C-6.58226685 325.23172729 -6.58226685 325.23172729 -5.53515625 325.83203125 C-4.94613525 326.17983643 -4.35711426 326.5276416 -3.75024414 326.88598633 C0.02603852 328.04518942 3.29438855 326.93819536 6.78857422 325.3359375 C8.03405029 324.61277344 8.03405029 324.61277344 9.3046875 323.875 C10.24086914 323.3380249 11.17705078 322.8010498 12.14160156 322.24780273 C13.61838379 321.38264038 13.61838379 321.38264038 15.125 320.5 C17.20034231 319.30307583 19.27586372 318.10646213 21.3515625 316.91015625 C22.36250977 316.32379395 23.37345703 315.73743164 24.41503906 315.13330078 C27.46204112 313.37783714 30.53207598 311.67060428 33.61547852 309.98022461 C35.50311741 308.93577511 37.37139147 307.86228518 39.23828125 306.78125 C42.25221647 305.03662304 45.32024866 303.43436366 48.41796875 301.84375 C50.17577139 300.87734673 51.93230139 299.90862473 53.6875 298.9375 C54.5237793 298.53394287 55.36005859 298.13038574 56.22167969 297.71459961 C58.87292155 296.19038482 60.45279536 294.98755423 62.25 292.5 C63.29463487 287.92835513 63.35803765 283.48574651 63.28335571 278.82595825 C63.24931868 276.45249019 63.27476506 274.08594927 63.31518555 271.71264648 C63.37956237 267.50190139 63.39075525 263.29320634 63.38037109 259.08203125 C63.37500529 256.50254443 63.38035812 253.92323164 63.38671875 251.34375 C63.39187785 247.18422516 63.34239983 243.02762187 63.27099609 238.86877441 C63.25045523 236.55135862 63.29306559 234.24160925 63.34375 231.92480469 C63.4956605 224.6521999 63.4956605 224.6521999 60.53759766 218.23242188 C58.11958021 216.37978528 55.74326629 215.07181948 53 213.75 C52.05922607 213.23526123 51.11845215 212.72052246 50.14916992 212.19018555 C48.18223457 211.11744561 46.20224601 210.06832218 44.21044922 209.04248047 C40.46084798 207.08882876 36.82358003 204.96789023 33.17456055 202.83398438 C29.73939659 200.83305515 26.27402515 198.88802933 22.80761719 196.94189453 C20.22079098 195.48353298 17.64499139 194.00702743 15.0703125 192.52734375 C13.44297174 191.60109957 11.81537899 190.67529793 10.1875 189.75 C9.07145386 189.10381714 9.07145386 189.10381714 7.93286133 188.44458008 C7.24216553 188.0555249 6.55146973 187.66646973 5.83984375 187.265625 C5.24034912 186.92305664 4.64085449 186.58048828 4.02319336 186.22753906 C-0.04778055 184.55722346 -2.82225031 185.80619304 -6.40625 187.74609375 Z M-92.86328125 241.45703125 C-94.1172168 242.38418945 -94.1172168 242.38418945 -95.39648438 243.33007812 C-96.27626953 243.98427734 -97.15605469 244.63847656 -98.0625 245.3125 C-98.93068359 245.95509766 -99.79886719 246.59769531 -100.69335938 247.25976562 C-104.38725776 249.99546167 -108.07451919 252.73960266 -111.75 255.5 C-110.59742801 258.95771598 -109.78392008 259.47408469 -106.890625 261.53125 C-105.71113281 262.37623047 -105.71113281 262.37623047 -104.5078125 263.23828125 C-103.68023437 263.81964844 -102.85265625 264.40101563 -102 265 C-101.18789062 265.58136719 -100.37578125 266.16273438 -99.5390625 266.76171875 C-95.67192845 269.51406008 -91.82986288 272.05208227 -87.75 274.5 C-87.75 262.62 -87.75 250.74 -87.75 238.5 C-89.70025273 238.5 -91.37013858 240.34994589 -92.86328125 241.45703125 Z M88.25 238.5 C88.25 250.38 88.25 262.26 88.25 274.5 C97.59703884 268.57490802 97.59703884 268.57490802 106.4375 262.0625 C107.00791016 261.61712891 107.57832031 261.17175781 108.16601562 260.71289062 C109.53078029 259.64630984 110.8909456 258.57384743 112.25 257.5 C111.09742801 254.04228402 110.28392008 253.52591531 107.390625 251.46875 C106.60429687 250.90542969 105.81796875 250.34210938 105.0078125 249.76171875 C104.18023437 249.18035156 103.35265625 248.59898437 102.5 248 C101.68789063 247.41863281 100.87578125 246.83726562 100.0390625 246.23828125 C96.17192845 243.48593992 92.32986288 240.94791773 88.25 238.5 Z M-136.6328125 275.7109375 C-137.7253284 276.75341065 -138.80540387 277.80902375 -139.875 278.875 C-141.0384423 279.9941347 -142.20251071 281.11261884 -143.3671875 282.23046875 C-143.94049805 282.78782715 -144.51380859 283.34518555 -145.10449219 283.91943359 C-147.34682149 286.07326741 -149.66894226 288.13046943 -152 290.1875 C-159.41520129 296.84555756 -166.34345483 303.86796039 -172.75 311.5 C-173.20890625 312.03447754 -173.6678125 312.56895508 -174.140625 313.11962891 C-194.94686794 337.33034261 -194.94686794 337.33034261 -202.15234375 367.38671875 C-201.45673849 371.04033471 -200.35568405 372.83227586 -197.75 375.5 C-178.72215297 387.96532315 -152.62214268 382.53432785 -131.75 378.5 C-114.0165115 374.77265638 -96.81800912 369.54867119 -79.75 363.5 C-79.86069824 362.55495605 -79.97139648 361.60991211 -80.08544922 360.63623047 C-80.41553707 357.81415405 -80.74267499 354.99174908 -81.06860352 352.16918945 C-81.43924275 348.96106661 -81.8184895 345.7541095 -82.20288086 342.54760742 C-83.03020103 335.55072507 -83.82357691 328.60511941 -84.07421875 321.55859375 C-84.10321369 312.15998257 -84.10321369 312.15998257 -87.71875 303.81640625 C-90.60058643 301.65936905 -93.5436277 300.13590423 -96.75 298.5 C-99.53735787 296.66393949 -102.2317522 294.7036385 -104.9375 292.75 C-106.3929588 291.72747963 -107.84869109 290.70534845 -109.3046875 289.68359375 C-114.49283902 286.00245492 -119.55625891 282.15616336 -124.57299805 278.24511719 C-125.50559448 277.5301709 -125.50559448 277.5301709 -126.45703125 276.80078125 C-127.26877808 276.16910034 -127.26877808 276.16910034 -128.09692383 275.5246582 C-131.80838564 273.22411098 -133.05845512 272.96962818 -136.6328125 275.7109375 Z M127.72265625 276.0703125 C126.67235229 276.91057983 126.67235229 276.91057983 125.60083008 277.76782227 C124.84568115 278.38069092 124.09053223 278.99355957 123.3125 279.625 C114.33619863 286.76902732 105.05150383 293.37973766 95.5949707 299.86938477 C94.82113037 300.40748779 94.04729004 300.94559082 93.25 301.5 C92.6651886 301.80329727 92.0803772 302.10659454 91.47784424 302.41908264 C88.47007255 304.14738678 86.62187836 305.43333251 85.45436096 308.78215027 C84.97405716 311.6679346 84.70822744 314.50712529 84.5078125 317.42578125 C84.40910858 318.48733932 84.31040466 319.5488974 84.20870972 320.6426239 C83.90043484 324.03070824 83.63693782 327.42054967 83.375 330.8125 C83.17747148 333.08294461 82.97698194 335.35313368 82.7734375 337.62304688 C82.40086022 341.8051146 82.04750679 345.98794961 81.71142578 350.1730957 C81.34385119 354.63585621 80.84436855 359.06198235 80.25 363.5 C102.69229758 371.45324621 125.63992557 378.1038443 149.25 381.5 C150.11238281 381.63019531 150.97476563 381.76039063 151.86328125 381.89453125 C166.35401974 383.72109492 185.41395813 384.76414495 197.76171875 375.80078125 C200.66187858 373.26599588 201.9507232 371.28205728 202.59375 367.453125 C203.86886347 347.94388895 187.97752376 328.79882471 175.89990234 314.95214844 C173.80056005 312.59067833 171.66548982 310.26471781 169.515625 307.94921875 C167.54242483 305.81612133 165.63705297 303.64641013 163.75 301.4375 C157.73266776 294.52818675 151.17190696 288.11209619 144.19921875 282.171875 C142.80604679 280.97692991 141.4359408 279.75487914 140.08203125 278.515625 C139.37433594 277.87109375 138.66664063 277.2265625 137.9375 276.5625 C137.30199219 275.97597656 136.66648437 275.38945312 136.01171875 274.78515625 C132.60120647 272.29722157 130.61643669 273.71484771 127.72265625 276.0703125 Z M-59.75 323.5 C-58.76 333.4 -57.77 343.3 -56.75 353.5 C-52.11609869 352.72768311 -49.42071154 352.10580124 -45.3515625 350.21484375 C-44.37832031 349.76689453 -43.40507812 349.31894531 -42.40234375 348.85742188 C-41.40332031 348.38884766 -40.40429688 347.92027344 -39.375 347.4375 C-37.84166016 346.72883789 -37.84166016 346.72883789 -36.27734375 346.00585938 C-33.76515329 344.84367781 -31.25625747 343.67490756 -28.75 342.5 C-28.75 341.84 -28.75 341.18 -28.75 340.5 C-29.23243164 340.23372803 -29.71486328 339.96745605 -30.21191406 339.69311523 C-39.08954999 334.78888626 -47.94468916 329.86831949 -56.66015625 324.6796875 C-58.49517018 323.41807092 -58.49517018 323.41807092 -59.75 323.5 Z M52.0625 327.5 C51.35158203 327.90210693 50.64066406 328.30421387 49.90820312 328.71850586 C43.01001581 332.62436724 36.12678219 336.55659521 29.25 340.5 C29.25 341.16 29.25 341.82 29.25 342.5 C32.47838633 343.9600652 35.70784485 345.41774383 38.9375 346.875 C39.84951172 347.2875 40.76152344 347.7 41.70117188 348.125 C43.03051758 348.72441406 43.03051758 348.72441406 44.38671875 349.3359375 C45.19842529 349.70251465 46.01013184 350.0690918 46.84643555 350.44677734 C51.86114428 352.7624368 51.86114428 352.7624368 57.25 353.5 C58.24 343.6 59.23 333.7 60.25 323.5 C57.60246717 323.5 54.39013454 326.17662713 52.0625 327.5 Z M-7.2734375 359.02734375 C-8.36736816 359.56810547 -9.46129883 360.10886719 -10.58837891 360.66601562 C-12.33900635 361.54290039 -12.33900635 361.54290039 -14.125 362.4375 C-23.96294558 367.32128843 -33.86048465 371.79682047 -44.20849609 375.51928711 C-45.06008301 375.84292236 -45.91166992 376.16655762 -46.7890625 376.5 C-47.53365723 376.768125 -48.27825195 377.03625 -49.04541016 377.3125 C-50.96706862 378.40443931 -50.96706862 378.40443931 -51.55371094 380.7890625 C-51.76572682 383.71720231 -51.47256032 386.00746599 -50.8515625 388.875 C-50.51064575 390.45450439 -50.51064575 390.45450439 -50.1628418 392.06591797 C-49.902854 393.19916504 -49.64286621 394.33241211 -49.375 395.5 C-49.10534424 396.68609863 -48.83568848 397.87219727 -48.55786133 399.09423828 C-41.75287355 428.09667434 -33.051928 463.80073062 -9.75 484.5 C-5.07265401 487.18570189 -1.13589193 488.5466922 4.25 487.5 C18.01791918 481.95533216 26.12211855 465.76895808 31.76171875 452.921875 C39.8324947 433.75783837 45.75926835 413.89946109 50.3125 393.625 C50.5288208 392.67415527 50.7451416 391.72331055 50.96801758 390.74365234 C51.15517334 389.8614502 51.3423291 388.97924805 51.53515625 388.0703125 C51.78084351 386.92199951 51.78084351 386.92199951 52.03149414 385.75048828 C52.29908546 382.99444714 52.1944816 381.11706285 51.25 378.5 C49.08694606 376.97251217 49.08694606 376.97251217 46.2734375 375.9921875 C45.22043457 375.56784424 44.16743164 375.14350098 43.08251953 374.70629883 C41.94153809 374.26697021 40.80055664 373.8276416 39.625 373.375 C37.25320122 372.42295384 34.88344582 371.46580329 32.515625 370.50390625 C31.30841797 370.01422363 30.10121094 369.52454102 28.85742188 369.02001953 C22.26142021 366.24073513 15.85976129 363.05867795 9.46240234 359.85302734 C8.5698877 359.41297363 7.67737305 358.97291992 6.7578125 358.51953125 C5.59209717 357.93328979 5.59209717 357.93328979 4.40283203 357.33520508 C-0.19281663 355.55229353 -3.14257132 356.95230559 -7.2734375 359.02734375 Z " fill="#55B7DD" transform="translate(255.75,-0.5)"/>
<path d="M0 0 C7.67289658 5.82318044 13.36412992 11.60832846 16 21 C17.0156633 32.39668703 16.10965574 41.15568856 8.75 50.25 C3.39198513 56.02193876 -3.46511567 60.55428565 -11.41796875 61.3359375 C-22.80320358 61.45391921 -30.87098929 59.75243373 -39.31640625 51.71484375 C-46.23668279 44.66611661 -48.15185222 38.33022356 -48.4375 28.5 C-48.18030951 17.77301323 -44.47457579 11.47457579 -37 4 C-27.78728052 -4.74027233 -11.06405541 -6.46759122 0 0 Z M-21.375 23.625 C-23.48706506 26.71186432 -23.61195145 28.3282913 -23 32 C-21.5 34.5 -21.5 34.5 -19 36 C-15.3282913 36.61195145 -13.71186432 36.48706506 -10.625 34.375 C-8.51293494 31.28813568 -8.38804855 29.6717087 -9 26 C-10.5 23.5 -10.5 23.5 -13 22 C-16.6717087 21.38804855 -18.28813568 21.51293494 -21.375 23.625 Z " fill="#55B7DD" transform="translate(272,227)"/>
</svg>
