<?xml version="1.0" encoding="UTF-8"?>
<svg version="1.1" xmlns="http://www.w3.org/2000/svg" width="512" height="512">
<path d="M0 0 C0.495 0.99 0.495 0.99 1 2 C0.38256836 3.74560547 0.38256836 3.74560547 -0.66015625 5.8671875 C-1.03889893 6.6600415 -1.4176416 7.45289551 -1.80786133 8.26977539 C-2.22189209 9.12949951 -2.63592285 9.98922363 -3.0625 10.875 C-26.62603897 61.59589533 -24.40594856 120.98516742 -5.90234375 172.921875 C10.08077948 216.20079728 37.62598708 257.064305 73 287 C73.55896973 287.48726563 74.11793945 287.97453125 74.69384766 288.4765625 C131.29660643 337.77141842 204.72425603 363.1019918 279.58886719 358.79345703 C335.58959468 354.7998759 388.69008354 333.94455916 426.12109375 291.13671875 C428.31535226 288.64137695 430.61325286 286.3097553 433 284 C431.1593262 290.03404906 428.93344242 295.57553999 425.9375 301.125 C425.5468335 301.85364258 425.15616699 302.58228516 424.75366211 303.33300781 C410.51486536 329.40874038 390.358365 353.70845633 367 372 C366.00355469 372.80179687 365.00710938 373.60359375 363.98046875 374.4296875 C329.68084518 401.77306916 287.481385 417.54126395 244 422 C243.1322998 422.0928125 242.26459961 422.185625 241.37060547 422.28125 C232.29549432 423.15280929 223.23410524 423.24123731 214.125 423.25 C213.29762329 423.25133942 212.47024658 423.25267883 211.61779785 423.25405884 C196.62266115 423.24883944 181.93601048 422.31661904 167.05273438 420.39257812 C164.43821365 420.05635377 161.82418449 419.76301832 159.203125 419.484375 C137.54126816 416.86609862 115.39004098 407.65692611 96 398 C95.08702148 397.54898926 94.17404297 397.09797852 93.23339844 396.63330078 C72.62084467 386.3756548 53.80516284 374.60390641 36 360 C35.36674805 359.4838916 34.73349609 358.9677832 34.08105469 358.43603516 C18.80489745 345.88979131 3.87328367 331.84609341 -8 316 C-8.93396196 314.79354731 -9.86893754 313.58787891 -10.8046875 312.3828125 C-40.8453939 273.37869764 -61.62025117 227.23095729 -67 178 C-67.11085938 177.05769531 -67.22171875 176.11539063 -67.3359375 175.14453125 C-71.98209218 127.61562459 -61.53144338 78.15923529 -32 40 C-31.56574707 39.43506836 -31.13149414 38.87013672 -30.68408203 38.28808594 C-27.49928478 34.15727474 -24.25793385 30.07323919 -21 26 C-19.9726335 24.71225773 -18.94529019 23.42449696 -17.91796875 22.13671875 C-15.40773826 18.99312812 -12.89222988 15.85380728 -10.375 12.71582031 C-9.08118612 11.10130967 -7.78993035 9.48480177 -6.5 7.8671875 C-5.778125 6.96226563 -5.05625 6.05734375 -4.3125 5.125 C-3.68988281 4.34382813 -3.06726563 3.56265625 -2.42578125 2.7578125 C-1 1 -1 1 0 0 Z " fill="#000000" transform="translate(72,80)"/>
<path d="M0 0 C0.495 0.99 0.495 0.99 1 2 C0.36669922 3.7331543 0.36669922 3.7331543 -0.6953125 5.82421875 C-1.07929199 6.59797852 -1.46327148 7.37173828 -1.85888672 8.16894531 C-2.48561279 9.41562988 -2.48561279 9.41562988 -3.125 10.6875 C-20.42948086 46.23364831 -21.82775616 88.22984099 -9.53515625 125.7265625 C7.02993854 173.14820642 40.48183005 212.99190905 84 238 C85.15894775 238.66878174 85.15894775 238.66878174 86.34130859 239.35107422 C110.22032445 252.93847679 136.67011608 261.8108955 164 265 C164.91910156 265.11085938 165.83820313 265.22171875 166.78515625 265.3359375 C207.46622219 269.47678878 250.56934941 259.78154558 283.12890625 234.37890625 C291.15224638 227.73099586 298.53471826 220.70302011 305.35546875 212.80078125 C305.89816406 212.20652344 306.44085938 211.61226562 307 211 C307.33 211 307.66 211 308 211 C308.3541799 216.96858717 307.64696693 220.89278959 304.625 226.125 C304.26704346 226.76679199 303.90908691 227.40858398 303.5402832 228.06982422 C282.53496467 264.85279137 248.2824948 292.35623183 207.62207031 304.29150391 C169.86975925 314.49236114 125.16166052 316.61176327 88 303 C86.67619919 302.54046092 85.3519725 302.08214704 84.02734375 301.625 C74.27779147 298.18906049 65.11587746 293.85601196 56 289 C54.85015625 288.39542969 53.7003125 287.79085938 52.515625 287.16796875 C37.55817871 278.98273028 24.30615368 268.74078674 12 257 C10.52827269 255.72055867 9.04993477 254.44864599 7.5625 253.1875 C4.30190932 250.36479857 1.70121996 247.35827347 -1 244 C-1.804375 243.195625 -2.60875 242.39125 -3.4375 241.5625 C-8.95363225 236.04636775 -13.52152347 230.06570069 -17.8125 223.5625 C-18.33166992 222.77681641 -18.85083984 221.99113281 -19.38574219 221.18164062 C-44.15266936 183.29205235 -58.13528892 137.39159683 -49.41088867 91.97167969 C-48.97719251 89.97015379 -48.50048343 87.98582058 -48 86 C-47.82839355 85.29955566 -47.65678711 84.59911133 -47.47998047 83.87744141 C-44.76694442 73.10045727 -40.81007306 63.0041671 -36 53 C-35.55140625 52.06027344 -35.1028125 51.12054688 -34.640625 50.15234375 C-30.45671307 41.99371549 -24.97168703 34.67963228 -19.62304688 27.26123047 C-16.44091876 22.82788652 -13.31841934 18.35215865 -10.18505859 13.88427734 C-6.87760956 9.18860206 -3.4690247 4.57750194 0 0 Z " fill="#000000" transform="translate(204,32)"/>
<path d="M0 0 C0.33 0.66 0.66 1.32 1 2 C0.15690089 4.15524631 -0.77665532 6.27535648 -1.75 8.375 C-11.90922032 31.04937175 -11.08863044 56.40858085 -2.6784668 79.52368164 C10.97596819 114.68334299 36.46101858 139.61200453 70.44921875 155.02734375 C76.2010203 157.55993276 81.87440041 159.56379072 88 161 C89.11689209 161.26852783 89.11689209 161.26852783 90.25634766 161.54248047 C116.49454847 167.65939331 145.93450846 168.30987572 169.84765625 154.3359375 C172.33150713 152.6544434 174.67265812 150.89146514 177 149 C177.79148437 148.35933594 178.58296875 147.71867188 179.3984375 147.05859375 C184.35709718 142.84949891 188.35106532 138.38038996 192 133 C192.33 133.66 192.66 134.32 193 135 C191.95548336 137.21730726 190.8631983 139.26815192 189.625 141.375 C189.2635791 141.99769775 188.9021582 142.62039551 188.52978516 143.26196289 C184.80902943 149.53844561 180.54613889 155.29169027 176 161 C175.24976563 161.98226562 175.24976563 161.98226562 174.484375 162.984375 C160.19504658 180.88709681 138.00893887 190.26683822 116 194 C115.24976563 194.13148438 114.49953125 194.26296875 113.7265625 194.3984375 C92.42947962 197.41756419 68.63135849 194.70831909 49 186 C47.99598145 185.55696533 47.99598145 185.55696533 46.97167969 185.10498047 C31.4466486 178.09978352 18.15629244 168.87522209 6 157 C5.21109375 156.27296875 4.4221875 155.5459375 3.609375 154.796875 C-14.25526135 137.93165887 -26.10908587 114.1236676 -30 90 C-30.13019531 89.21753906 -30.26039063 88.43507813 -30.39453125 87.62890625 C-34.63041675 56.84813832 -23.53998068 30.88971722 -5.43603516 6.87451172 C-3.65873178 4.55452951 -1.84475621 2.26667125 0 0 Z " fill="#000000" transform="translate(310,9)"/>
</svg>
