<?xml version="1.0" encoding="UTF-8"?>
<svg version="1.1" xmlns="http://www.w3.org/2000/svg" width="132" height="130">
<path d="M0 0 C0.680625 -0.00515625 1.36125 -0.0103125 2.0625 -0.015625 C4 0.25 4 0.25 7 2.25 C9.80940044 2.30339602 9.80940044 2.30339602 12.875 2.0625 C18.63991688 1.93792797 18.63991688 1.93792797 21.8125 4.6875 C22.8953125 5.9559375 22.8953125 5.9559375 24 7.25 C25.155 7.415 26.31 7.58 27.5 7.75 C31.89750135 8.37821448 33.29599978 9.80854517 36 13.25 C36 14.24 36 15.23 36 16.25 C37.3303125 16.1571875 37.3303125 16.1571875 38.6875 16.0625 C42.58357136 16.28303234 44.08382786 16.64908971 47 19.25 C47.8456082 21.48913599 48.47298878 23.75113728 49.12109375 26.0546875 C49.93913589 28.60191987 49.93913589 28.60191987 53 30.75 C56.5501995 33.70849958 57.20311357 35.82067022 58.359375 40.1640625 C58.97468652 42.52184262 58.97468652 42.52184262 61 45.25 C61.22500851 47.27507655 61.4486259 49.30040727 61.6484375 51.328125 C62.11139568 53.85896304 63.42238596 55.26083447 65 57.25 C65.1875 60 65.1875 60 65 62.25 C65.66 62.25 66.32 62.25 67 62.25 C68.15645243 77.99060249 62.27073027 91.79150045 52.83203125 104.0703125 C44.5894556 113.61127617 35.44755655 120.05729394 24 125.25 C24 126.9 24 128.55 24 130.25 C8.82 130.25 -6.36 130.25 -22 130.25 C-21.505 127.28 -21.505 127.28 -21 124.25 C-21.72058594 124.13398437 -22.44117188 124.01796875 -23.18359375 123.8984375 C-37.3602135 120.63447234 -48.43043187 108.22275078 -56.09375 96.51953125 C-62.51693196 85.50272121 -65.47656764 74.93199447 -65 62.25 C-64.34 62.25 -63.68 62.25 -63 62.25 C-62.855625 61.13625 -62.71125 60.0225 -62.5625 58.875 C-62 55.25 -62 55.25 -61 53.25 C-61.061875 51.331875 -61.061875 51.331875 -61.125 49.375 C-61.17978179 45.55396983 -60.42193294 44.23084054 -58 41.25 C-57.69258944 39.94558224 -57.42572067 38.63130926 -57.1875 37.3125 C-56.19256243 32.70347295 -53.61734705 31.18909448 -50 28.25 C-49.67 27.095 -49.34 25.94 -49 24.75 C-47.64021728 19.99076047 -46.15351996 18.88588766 -42 16.25 C-38.625 15.9375 -38.625 15.9375 -36 16.25 C-35.9071875 15.38375 -35.9071875 15.38375 -35.8125 14.5 C-34.62962404 11.22434351 -32.89516912 10.13815378 -30 8.25 C-28.824375 7.92 -27.64875 7.59 -26.4375 7.25 C-22.95659871 6.56664719 -22.95659871 6.56664719 -21.1640625 4.1953125 C-19 2.25 -19 2.25 -16.08984375 1.9296875 C-15.04957031 1.99414062 -14.00929687 2.05859375 -12.9375 2.125 C-7.76298362 2.41922466 -4.89594987 -0.03709053 0 0 Z " fill="#1890FD" transform="translate(65,-0.25)"/>
<path d="M0 0 C3.125 0.25 3.125 0.25 5 1.625 C6.125 3.25 6.125 3.25 6.125 5.25 C7.4553125 4.5075 7.4553125 4.5075 8.8125 3.75 C12.03443677 2.29100977 13.674703 1.69049238 17.125 2.25 C19.6298111 4.12860833 20.11200625 5.21101874 21.125 8.25 C22.3625 8.146875 23.6 8.04375 24.875 7.9375 C28.37307694 7.93129774 28.87766476 8.02739828 31.625 10.5 C33.125 13.25 33.125 13.25 33.125 17.25 C34.3625 17.0025 35.6 16.755 36.875 16.5 C39.97987714 16.13115821 40.82624081 16.07821347 43.625 17.6875 C45.78431811 21.37633511 45.40735872 24.01461913 45.125 28.25 C46.07375 28.53875 47.0225 28.8275 48 29.125 C51.125 30.25 51.125 30.25 53.125 32.25 C53.3415625 33.9515625 53.3415625 33.9515625 53.5625 35.6875 C53.73744102 39.19082643 53.73744102 39.19082643 55.6796875 40.6796875 C57.125 42.25 57.125 42.25 57.19921875 44.51171875 C57.07160156 45.31222656 56.94398437 46.11273438 56.8125 46.9375 C56.69261719 47.74574219 56.57273437 48.55398437 56.44921875 49.38671875 C56.34222656 50.00160156 56.23523438 50.61648437 56.125 51.25 C56.764375 51.559375 57.40375 51.86875 58.0625 52.1875 C60.125 53.25 60.125 53.25 61.125 54.25 C61.125 55.9 61.125 57.55 61.125 59.25 C21.525 59.25 -18.075 59.25 -58.875 59.25 C-57.875 53.25 -57.875 53.25 -56.75 51.3125 C-55.58200101 49.0654688 -55.58200101 49.0654688 -56.4375 45.6875 C-56.581875 44.553125 -56.72625 43.41875 -56.875 42.25 C-55.5 40.75 -55.5 40.75 -53.875 39.25 C-53.730625 38.115625 -53.58625 36.98125 -53.4375 35.8125 C-52.875 32.25 -52.875 32.25 -51.125 29.8125 C-48.46767675 27.96713663 -47.0435371 27.89794032 -43.875 28.25 C-44.1225 27.0125 -44.37 25.775 -44.625 24.5 C-44.99384179 21.39512286 -45.04678653 20.54875919 -43.4375 17.75 C-39.74866489 15.59068189 -37.11038087 15.96764128 -32.875 16.25 C-32.58625 15.30125 -32.2975 14.3525 -32 13.375 C-30.875 10.25 -30.875 10.25 -28.875 8.25 C-27.575625 8.311875 -26.27625 8.37375 -24.9375 8.4375 C-22.81714144 8.56645241 -22.81714144 8.56645241 -20.875 8.25 C-18.84857892 5.92994969 -18.84857892 5.92994969 -17.875 3.25 C-17.545 2.92 -17.215 2.59 -16.875 2.25 C-12.80220311 2.63422612 -9.40925882 3.12944471 -5.875 5.25 C-5.565625 4.610625 -5.25625 3.97125 -4.9375 3.3125 C-3.38258621 0.29413793 -3.38258621 0.29413793 0 0 Z " fill="#F9F9F9" transform="translate(64.875,3.75)"/>
<path d="M0 0 C0.680625 -0.00515625 1.36125 -0.0103125 2.0625 -0.015625 C4 0.25 4 0.25 7 2.25 C9.80940044 2.30339602 9.80940044 2.30339602 12.875 2.0625 C18.63991688 1.93792797 18.63991688 1.93792797 21.8125 4.6875 C22.8953125 5.9559375 22.8953125 5.9559375 24 7.25 C25.155 7.415 26.31 7.58 27.5 7.75 C31.89750135 8.37821448 33.29599978 9.80854517 36 13.25 C36 14.24 36 15.23 36 16.25 C37.3303125 16.1571875 37.3303125 16.1571875 38.6875 16.0625 C42.58357136 16.28303234 44.08382786 16.64908971 47 19.25 C47.8456082 21.48913599 48.47298878 23.75113728 49.12109375 26.0546875 C49.93913589 28.60191987 49.93913589 28.60191987 53 30.75 C56.5501995 33.70849958 57.20311357 35.82067022 58.359375 40.1640625 C58.97468652 42.52184262 58.97468652 42.52184262 61 45.25 C61.22500851 47.27507655 61.4486259 49.30040727 61.6484375 51.328125 C62.11139568 53.85896304 63.42238596 55.26083447 65 57.25 C65.1875 60 65.1875 60 65 62.25 C65.66 62.25 66.32 62.25 67 62.25 C68.15645243 77.99060249 62.27073027 91.79150045 52.83203125 104.0703125 C44.5894556 113.61127617 35.44755655 120.05729394 24 125.25 C24 126.9 24 128.55 24 130.25 C8.82 130.25 -6.36 130.25 -22 130.25 C-21.505 127.28 -21.505 127.28 -21 124.25 C-21.72058594 124.13398437 -22.44117188 124.01796875 -23.18359375 123.8984375 C-37.3602135 120.63447234 -48.43043187 108.22275078 -56.09375 96.51953125 C-62.51693196 85.50272121 -65.47656764 74.93199447 -65 62.25 C-64.34 62.25 -63.68 62.25 -63 62.25 C-62.855625 61.13625 -62.71125 60.0225 -62.5625 58.875 C-62 55.25 -62 55.25 -61 53.25 C-61.061875 51.331875 -61.061875 51.331875 -61.125 49.375 C-61.17978179 45.55396983 -60.42193294 44.23084054 -58 41.25 C-57.69258944 39.94558224 -57.42572067 38.63130926 -57.1875 37.3125 C-56.19256243 32.70347295 -53.61734705 31.18909448 -50 28.25 C-49.67 27.095 -49.34 25.94 -49 24.75 C-47.64021728 19.99076047 -46.15351996 18.88588766 -42 16.25 C-38.625 15.9375 -38.625 15.9375 -36 16.25 C-35.9071875 15.38375 -35.9071875 15.38375 -35.8125 14.5 C-34.62962404 11.22434351 -32.89516912 10.13815378 -30 8.25 C-28.824375 7.92 -27.64875 7.59 -26.4375 7.25 C-22.95659871 6.56664719 -22.95659871 6.56664719 -21.1640625 4.1953125 C-19 2.25 -19 2.25 -16.08984375 1.9296875 C-15.04957031 1.99414062 -14.00929687 2.05859375 -12.9375 2.125 C-7.76298362 2.41922466 -4.89594987 -0.03709053 0 0 Z M-4.875 5.625 C-6.18973666 7.19466014 -6.18973666 7.19466014 -6 9.25 C-6.886875 8.755 -7.77375 8.26 -8.6875 7.75 C-11.90943677 6.29100977 -13.549703 5.69049238 -17 6.25 C-19.5048111 8.12860833 -19.98700625 9.21101874 -21 12.25 C-22.8871875 12.1571875 -22.8871875 12.1571875 -24.8125 12.0625 C-28.05651752 12.05718893 -28.05651752 12.05718893 -30.9375 13.4375 C-32.24912987 15.67498625 -32.65447612 17.69312331 -33 20.25 C-34.2375 20.1675 -35.475 20.085 -36.75 20 C-39.77682887 20.021505 -40.87291965 20.1756115 -43.5625 21.75 C-45.7310621 25.52141235 -44.84157098 28.04214512 -44 32.25 C-44.7425 32.1675 -45.485 32.085 -46.25 32 C-49.07666568 32.028825 -49.07666568 32.028825 -51.25 33.8125 C-53.47895496 36.91711583 -53.52283043 39.50081053 -54 43.25 C-54.51433594 43.724375 -55.02867188 44.19875 -55.55859375 44.6875 C-57.24494702 46.15560457 -57.24494702 46.15560457 -56.96875 48.37109375 C-56.8140625 49.13550781 -56.659375 49.89992187 -56.5 50.6875 C-55.83856605 54.99030191 -55.83856605 54.99030191 -57.4375 57.5625 C-57.953125 58.119375 -58.46875 58.67625 -59 59.25 C-59 60.57 -59 61.89 -59 63.25 C-19.4 63.25 20.2 63.25 61 63.25 C61.5036554 58.534737 61.5036554 58.534737 59.625 56.4375 C58.06631217 55.0533278 58.06631217 55.0533278 56 55.25 C56.10699219 54.63511719 56.21398437 54.02023438 56.32421875 53.38671875 C56.44410156 52.57847656 56.56398438 51.77023438 56.6875 50.9375 C56.81511719 50.13699219 56.94273438 49.33648437 57.07421875 48.51171875 C57.24374918 46.1710504 57.24374918 46.1710504 55.55078125 44.67578125 C55.03902344 44.20527344 54.52726562 43.73476563 54 43.25 C53.66666667 40.91666667 53.33333333 38.58333333 53 36.25 C51.29340724 33.69011086 50.3131619 33.33011118 47.3125 32.5625 C46.549375 32.459375 45.78625 32.35625 45 32.25 C45.0825 31.0125 45.165 29.775 45.25 28.5 C45.228495 25.47317113 45.0743885 24.37708035 43.5 21.6875 C39.72858765 19.5189379 37.20785488 20.40842902 33 21.25 C32.896875 20.321875 32.79375 19.39375 32.6875 18.4375 C32.19220578 15.37171585 32.19220578 15.37171585 30.9375 13.375 C28.63472455 12.03790458 27.61577848 12.22141301 25 12.375 C22.87109375 12.47265625 22.87109375 12.47265625 21 12.25 C19.0625 9.8125 19.0625 9.8125 18 7.25 C17.505 6.755 17.505 6.755 17 6.25 C12.92720311 6.63422612 9.53425882 7.12944471 6 9.25 C5.690625 8.610625 5.38125 7.97125 5.0625 7.3125 C4.1654837 5.31389179 4.1654837 5.31389179 3 4.25 C-1.21400035 3.82380299 -1.21400035 3.82380299 -4.875 5.625 Z M-60 67.25 C-60 73.52501563 -59.73300097 77.37298583 -57.5625 82.9375 C-57.29663086 83.62593994 -57.03076172 84.31437988 -56.75683594 85.02368164 C-49.71865854 102.30228759 -36.88231466 113.95027852 -20 121.25 C-4.72461241 127.04880956 12.28390118 125.17871412 26.98046875 118.7265625 C43.70578281 110.54781901 53.70543132 98.66203583 60 81.20703125 C62.31170732 74.39446762 62.31170732 74.39446762 63 67.25 C22.41 67.25 -18.18 67.25 -60 67.25 Z " fill="#020405" transform="translate(65,-0.25)"/>
</svg>
