<?xml version="1.0" encoding="UTF-8"?>
<svg id="shootingStar" version="1.1" xmlns="http://www.w3.org/2000/svg" width="512" height="512">
<path d="M0 0 C7.6403327 4.62581159 11.16806604 15.38414897 14.875 23.15625 C15.82978192 25.12025244 16.78553905 27.08378105 17.7421875 29.046875 C19.22614087 32.10166658 20.70367801 35.15893854 22.16503906 38.22460938 C23.5918087 41.21104801 25.0435292 44.18420779 26.5 47.15625 C26.93143311 48.07700317 27.36286621 48.99775635 27.80737305 49.94641113 C30.17149542 54.84497146 30.17149542 54.84497146 34.33642578 58.11547852 C35.44228027 58.28362061 36.54813477 58.4517627 37.6875 58.625 C38.45455261 58.75466156 39.22160522 58.88432312 40.01190186 59.01791382 C42.83335507 59.47720268 45.65902749 59.86587115 48.4921875 60.24609375 C50.62372278 60.54474446 52.75523242 60.84357826 54.88671875 61.14257812 C58.22596941 61.60422229 61.56558577 62.06292025 64.90576172 62.51782227 C68.1440554 62.96101503 71.3806224 63.41547328 74.6171875 63.87109375 C75.6070163 64.00245224 76.59684509 64.13381073 77.6166687 64.26914978 C85.41505307 65.37517485 92.91473601 66.85223601 98.6875 72.625 C102.10343273 77.33663135 102.07256984 81.90953389 102.18359375 87.52734375 C100.81899897 96.04800252 94.34393031 101.36418277 88.4375 107.125 C87.61636719 107.94097656 86.79523438 108.75695312 85.94921875 109.59765625 C81.01650678 114.46782988 75.93467859 119.0988396 70.6875 123.625 C62.90132568 129.95235762 62.90132568 129.95235762 57.875 138.22265625 C57.72237496 140.52971102 57.72237496 140.52971102 57.796875 142.7109375 C57.6875 144.625 57.6875 144.625 55.5 147.6875 C52.6875 149.625 52.6875 149.625 49.6875 150.25 C46.6875 149.625 46.6875 149.625 43.8125 147.9375 C40.53541805 142.82910755 40.68990436 137.52801421 41.6875 131.625 C44.57694458 124.69372238 50.09843857 119.82655358 55.37646484 114.65478516 C56.92671269 113.13557136 58.46615421 111.60606959 60.00390625 110.07421875 C64.87981055 105.23703979 69.82432516 100.51740574 75.03857422 96.04248047 C77.13482299 94.24046384 79.14674662 92.36798872 81.125 90.4375 C81.78371094 89.80457031 82.44242187 89.17164062 83.12109375 88.51953125 C84.80170873 86.48686725 85.1462633 85.1576723 85.6875 82.625 C85.09583038 82.54174469 84.50416077 82.45848938 83.89456177 82.37271118 C77.69646801 81.49998191 71.49895677 80.62320078 65.30175781 79.74414062 C62.99363447 79.41726953 60.68536806 79.09140696 58.37695312 78.76660156 C55.04518464 78.29762206 51.7139598 77.82493162 48.3828125 77.3515625 C47.36261017 77.20876862 46.34240784 77.06597473 45.29129028 76.91885376 C24.39344043 73.93436676 24.39344043 73.93436676 19.6875 69.625 C15.2566452 63.29267236 11.87452217 56.24964577 8.5078125 49.3125 C8.05018524 48.37696289 7.59255798 47.44142578 7.12106323 46.47753906 C6.16607752 44.52239291 5.21330757 42.56616302 4.26269531 40.60888672 C2.8013122 37.60198025 1.33081664 34.59965123 -0.140625 31.59765625 C-1.07085388 29.69036811 -2.0005607 27.78282525 -2.9296875 25.875 C-3.37021454 24.97612061 -3.81074158 24.07724121 -4.26461792 23.15112305 C-4.66568756 22.32265869 -5.0667572 21.49419434 -5.47998047 20.640625 C-6.01242874 19.54669434 -6.01242874 19.54669434 -6.55563354 18.43066406 C-7.3125 16.625 -7.3125 16.625 -7.3125 14.625 C-9.2197683 14.66811343 -9.2197683 14.66811343 -11.3125 15.625 C-13.12580316 18.26113763 -13.12580316 18.26113763 -14.66796875 21.6171875 C-15.12258987 22.53752525 -15.12258987 22.53752525 -15.58639526 23.47645569 C-16.57094539 25.47807639 -17.53527732 27.48875911 -18.5 29.5 C-19.17314473 30.87504448 -19.84754726 32.2494739 -20.52319336 33.62329102 C-23.44431407 39.58384729 -26.30477371 45.57040204 -29.0859375 51.59765625 C-29.48143799 52.45182129 -29.87693848 53.30598633 -30.28442383 54.18603516 C-30.9838573 55.71016441 -31.67223672 57.23944375 -32.34643555 58.77490234 C-35.21170566 65.07775139 -38.28492732 70.23248533 -44.72875977 73.19628906 C-50.30489944 75.13957786 -56.07911591 75.85257257 -61.90625 76.66796875 C-63.09351685 76.84129227 -64.28078369 77.01461578 -65.50402832 77.19319153 C-69.27235994 77.74135677 -73.04233546 78.27710199 -76.8125 78.8125 C-79.37772293 79.18342437 -81.94282863 79.55516049 -84.5078125 79.92773438 C-90.77471505 80.83622429 -97.04301141 81.73454131 -103.3125 82.625 C-103.7200984 86.51808839 -103.7200984 86.51808839 -101.7694397 88.62216187 C-100.68594742 89.67423325 -100.68594742 89.67423325 -99.58056641 90.74755859 C-98.76617096 91.54874115 -97.95177551 92.34992371 -97.11270142 93.17538452 C-95.77687515 94.46142075 -95.77687515 94.46142075 -94.4140625 95.7734375 C-93.50876801 96.66358551 -92.60347351 97.55373352 -91.67074585 98.47085571 C-88.27787061 101.80645922 -84.86766731 105.12390122 -81.45587158 108.44012451 C-78.11839421 111.68592584 -74.79612604 114.94679645 -71.4765625 118.2109375 C-70.59006012 119.06424652 -69.70355774 119.91755554 -68.79019165 120.79672241 C-67.96949188 121.60420929 -67.14879211 122.41169617 -66.30322266 123.24365234 C-65.57930328 123.94662445 -64.85538391 124.64959656 -64.10952759 125.37387085 C-60.22776172 130.23654316 -59.84047977 135.60979941 -60.3125 141.625 C-60.77009176 145.24054426 -61.38633074 148.8191766 -62.02734375 152.40625 C-62.20254044 153.41917114 -62.37773712 154.43209229 -62.5582428 155.47570801 C-63.11586897 158.69327191 -63.68251336 161.90916196 -64.25 165.125 C-64.81222786 168.34110739 -65.37253717 171.55753663 -65.93104553 174.77429199 C-66.27798698 176.76928215 -66.62733083 178.76385653 -66.97947693 180.75793457 C-67.90357201 186.03701628 -68.69700331 191.3008559 -69.3125 196.625 C-61.69467045 193.78238497 -54.55728232 190.298204 -47.375 186.5 C-46.28687012 185.93321533 -45.19874023 185.36643066 -44.07763672 184.7824707 C-38.95852859 182.10962552 -33.87191147 179.39826231 -28.84765625 176.55078125 C-13.70089168 168.0251987 -13.70089168 168.0251987 -7.04296875 168.80078125 C-1.33300305 170.52439035 3.73986418 173.2861958 8.94287109 176.14257812 C12.26774849 177.93840231 15.62545781 179.66736831 18.98828125 181.390625 C20.29769668 182.06240325 21.60710417 182.734197 22.91650391 183.40600586 C23.8979538 183.90945023 23.8979538 183.90945023 24.89923096 184.42306519 C28.07511095 186.05368251 31.24793446 187.69008034 34.41796875 189.33203125 C35.50489014 189.8938208 36.59181152 190.45561035 37.71166992 191.03442383 C40.6875 192.625 40.6875 192.625 43.3293457 194.33081055 C45.82361165 195.94574713 45.82361165 195.94574713 49.6875 195.625 C49.5225 194.325625 49.3575 193.02625 49.1875 191.6875 C47.85219966 179.05197141 47.85219966 179.05197141 50.1875 175.0625 C53.73662678 173.0217521 56.69537466 172.72143254 60.6875 173.625 C65.07004007 176.96957005 65.6008093 181.59468571 66.3671875 186.78515625 C67.21623776 194.31271162 67.42818096 200.29949837 62.6875 206.625 C57.69920627 211.19382358 52.69832991 213.27632221 45.90356445 213.13256836 C42.00364415 212.51707194 38.91052494 211.00776579 35.4609375 209.1875 C34.77033737 208.83281143 34.07973724 208.47812286 33.36820984 208.11268616 C31.13521029 206.96144104 28.91057639 205.79528149 26.6875 204.625 C25.94619843 204.23593475 25.20489685 203.84686951 24.44113159 203.4460144 C22.17481027 202.25586632 19.90962343 201.06357918 17.64453125 199.87109375 C15.36367273 198.67248907 13.08276948 197.47397145 10.80151367 196.27612305 C9.24510731 195.45540638 7.69112477 194.63007927 6.1394043 193.80053711 C3.85610272 192.58174936 1.56401852 191.3811589 -0.73046875 190.18359375 C-1.42005173 189.80980087 -2.1096347 189.436008 -2.82011414 189.05088806 C-5.63940014 187.59659088 -7.74936795 186.60034639 -10.95581055 186.74072266 C-13.61956609 187.74021738 -16.08474641 188.88480983 -18.6015625 190.21484375 C-19.61710205 190.74746826 -20.6326416 191.28009277 -21.67895508 191.82885742 C-22.7542749 192.40095947 -23.82959473 192.97306152 -24.9375 193.5625 C-26.59591919 194.43515503 -26.59591919 194.43515503 -28.2878418 195.32543945 C-31.63231536 197.08648783 -34.97247065 198.85554092 -38.3125 200.625 C-41.09402903 202.09026566 -43.87674069 203.55326144 -46.65966797 205.01586914 C-49.61218948 206.56873523 -52.56199202 208.12672613 -55.51098633 209.6862793 C-56.10548584 209.99605713 -56.69998535 210.30583496 -57.3125 210.625 C-57.99481689 210.98851562 -58.67713379 211.35203125 -59.38012695 211.7265625 C-64.28655367 214.00775648 -70.62942151 213.16485537 -75.625 211.5625 C-79.63021387 208.67502023 -83.08870991 205.07258019 -85.3125 200.625 C-86.07764818 190.60450178 -85.9157863 176.83157261 -81.3125 167.625 C-118.31066912 185.00143845 -153.20669793 205.18182259 -185.3125 230.625 C-186.15554687 231.28628906 -186.99859375 231.94757813 -187.8671875 232.62890625 C-198.08843712 240.71120427 -207.95274941 249.17384002 -217.50390625 258.03515625 C-219.95105306 260.2917047 -222.43501038 262.4930091 -224.9375 264.6875 C-229.95385467 269.18998419 -234.72633075 273.92975907 -239.5 278.6875 C-240.26070801 279.44361572 -241.02141602 280.19973145 -241.80517578 280.97875977 C-245.95065499 285.13554565 -249.92934396 289.37889518 -253.76000977 293.82739258 C-255.84952449 296.24681339 -258.01838469 298.58945094 -260.1875 300.9375 C-264.22652153 305.37131311 -268.08756878 309.90554584 -271.8515625 314.57421875 C-273.64530236 316.79788674 -275.45122383 319.00698478 -277.2734375 321.20703125 C-295.55407075 343.34953259 -312.49149496 366.89548913 -327.1171875 391.61083984 C-328.25349015 393.52556551 -329.4044841 395.43037749 -330.5625 397.33203125 C-332.84132915 401.07948432 -335.0824528 404.84835108 -337.3125 408.625 C-337.73547363 409.3380127 -338.15844727 410.05102539 -338.59423828 410.78564453 C-354.35813581 437.47399733 -369.22604227 465.58560622 -380.83056641 494.35791016 C-381.08687332 494.98417801 -381.34318024 495.61044586 -381.60725403 496.25569153 C-382.32039055 498.00789706 -383.01871182 499.7661113 -383.71606445 501.5246582 C-385.75762866 505.4894577 -388.27174691 508.60462346 -392.3125 510.625 C-397.34921207 511.17758891 -401.23390903 511.16429549 -405.8125 508.875 C-409.22641894 505.80247295 -410.20016183 503.98780438 -410.58032227 499.37597656 C-410.54260804 488.91391771 -409.64206954 478.73919481 -408.25 468.375 C-408.14023834 467.539617 -408.03047668 466.70423401 -407.91738892 465.84353638 C-404.73576827 441.78730411 -400.21211835 418.03844969 -394.0625 394.5625 C-393.73338623 393.295271 -393.40427246 392.02804199 -393.06518555 390.72241211 C-392.74976807 389.56491455 -392.43435059 388.40741699 -392.109375 387.21484375 C-391.83448242 386.20284912 -391.55958984 385.19085449 -391.27636719 384.14819336 C-390.27744984 381.53324634 -389.57564736 380.25134125 -387.3125 378.625 C-383.22990764 378.23618168 -380.58611252 378.03717884 -376.875 379.75 C-374.68905536 382.37313357 -374.59860463 384.22140916 -374.3125 387.625 C-374.83270137 390.41045 -375.43194491 393.01366976 -376.19140625 395.73046875 C-376.62027869 397.35365264 -377.04872716 398.9769486 -377.47680664 400.6003418 C-377.70530304 401.4501059 -377.93379944 402.29987 -378.16921997 403.17538452 C-382.03445202 417.61765101 -385.40075345 432.06639534 -387.875 446.8125 C-387.99642365 447.52377045 -388.11784729 448.23504089 -388.24295044 448.96786499 C-389.74223888 457.82682795 -390.79062043 466.65154413 -391.3125 475.625 C-390.90636475 474.77719971 -390.50022949 473.92939941 -390.08178711 473.0559082 C-375.9345297 443.55816681 -361.43169496 414.53001472 -344.3125 386.625 C-343.76464844 385.73071289 -343.21679688 384.83642578 -342.65234375 383.91503906 C-335.25227113 371.89223937 -327.39686496 360.19684045 -319.3125 348.625 C-318.85601074 347.97128418 -318.39952148 347.31756836 -317.92919922 346.64404297 C-309.5042988 334.62149937 -300.5491066 323.0349258 -291.3125 311.625 C-290.59320313 310.73039062 -289.87390625 309.83578125 -289.1328125 308.9140625 C-284.70794885 303.44805446 -280.15289986 298.14477214 -275.41796875 292.9453125 C-273.58332315 290.92345816 -271.78481214 288.87821478 -270 286.8125 C-261.51757484 277.12377059 -252.65476682 267.86841679 -243.5625 258.75 C-242.67546387 257.85837158 -241.78842773 256.96674316 -240.87451172 256.0480957 C-235.84683052 251.03217681 -230.70231116 246.24680514 -225.3125 241.625 C-223.70481627 240.17054483 -222.10010285 238.71279105 -220.5 237.25 C-215.25056628 232.51991664 -209.82948513 228.0385881 -204.3125 223.625 C-203.78140625 223.19960937 -203.2503125 222.77421875 -202.703125 222.3359375 C-167.34419072 194.08183581 -126.75222035 165.77190314 -83.7734375 150.671875 C-79.99891202 149.18982002 -79.99891202 149.18982002 -77.6171875 145.890625 C-76.74396524 139.76862318 -76.74396524 139.76862318 -78.68359375 134.02734375 C-80.87371103 131.52875925 -82.26902861 130.01240013 -85.3125 128.625 C-92.82927229 128.83154526 -100.04882955 130.84742384 -107.3125 132.6875 C-108.53710938 132.99623047 -109.76171875 133.30496094 -111.0234375 133.62304688 C-123.2947213 136.77942348 -135.30968656 140.57996713 -147.3125 144.625 C-149.00906702 145.18373819 -150.70567931 145.74233894 -152.40234375 146.30078125 C-198.01040742 161.54913657 -241.99757125 184.57250228 -280.3125 213.625 C-280.93801758 214.0988916 -281.56353516 214.5727832 -282.20800781 215.06103516 C-291.19485674 221.91260878 -299.82797096 229.16331955 -308.3125 236.625 C-309.22773438 237.42679688 -310.14296875 238.22859375 -311.0859375 239.0546875 C-317.59570053 244.89295635 -323.82778443 251.01395602 -330.03417969 257.17144775 C-331.45631295 258.58167858 -332.88239288 259.98792595 -334.30859375 261.39404297 C-340.41526019 267.49307607 -345.94487902 273.87186558 -351.3125 280.625 C-352.33042001 281.86155509 -353.35190903 283.09519217 -354.37890625 284.32421875 C-355.65185513 285.84817164 -356.9247857 287.37213989 -358.19726562 288.89648438 C-359.23519849 290.13972264 -360.27377015 291.38242755 -361.3125 292.625 C-360.57644531 292.66238281 -359.84039062 292.69976562 -359.08203125 292.73828125 C-352.16553964 293.2042536 -348.13349251 293.8823684 -343.0625 298.8125 C-340.7871373 302.46933291 -339.80576332 305.37126672 -340.3125 309.625 C-341.63285019 313.18276369 -343.40954106 316.43238039 -345.26464844 319.73779297 C-346.879289 322.64580126 -348.41503337 325.59443305 -349.9597168 328.54003906 C-350.82007385 330.1803338 -351.68352214 331.81901084 -352.55004883 333.45605469 C-355.79664718 339.59404908 -358.90540119 345.78874116 -361.9375 352.03515625 C-363.3125 354.625 -363.3125 354.625 -365.3125 356.625 C-372.2398743 357.29539106 -372.2398743 357.29539106 -375.8125 355.0625 C-377.89507514 351.6783154 -377.62403114 349.5790491 -377.3125 345.625 C-376.4369666 342.73135491 -375.2211879 340.04607834 -373.9375 337.3125 C-373.58751953 336.54502441 -373.23753906 335.77754883 -372.87695312 334.98681641 C-368.82511041 326.28030446 -364.10795275 317.93842833 -359.3125 309.625 C-360.24191406 309.69460938 -361.17132813 309.76421875 -362.12890625 309.8359375 C-373.48508432 310.33328836 -373.48508432 310.33328836 -377.625 306.75 C-381.45888843 302.75194003 -381.66717687 299.55898236 -381.58203125 294.140625 C-381.17764384 290.36634252 -379.73449511 288.53139413 -377.3125 285.625 C-376.76464844 284.92246094 -376.21679688 284.21992188 -375.65234375 283.49609375 C-363.52662949 267.98414306 -350.32132421 253.44638522 -336.40576172 239.53295898 C-334.80796107 237.93295481 -333.21838449 236.32506385 -331.62890625 234.71679688 C-325.17914062 228.23232103 -318.47920509 222.32264813 -311.3125 216.625 C-310.22246532 215.70186561 -309.13783935 214.77224292 -308.0625 213.83203125 C-280.57069729 189.89385644 -248.82664097 170.86237177 -216.3125 154.625 C-215.3932373 154.1614209 -214.47397461 153.6978418 -213.52685547 153.22021484 C-177.79561459 135.28244177 -139.95752799 123.37721585 -101.3125 113.625 C-105.92723939 108.16054682 -105.92723939 108.16054682 -110.875 103 C-111.45765625 102.4225 -112.0403125 101.845 -112.640625 101.25 C-114.11743393 99.81459693 -115.61942605 98.40520235 -117.125 97 C-121.09377313 92.69104632 -121.77708945 88.67770358 -121.625 82.96484375 C-120.91041172 77.61436401 -118.4274998 73.34099982 -114.4375 69.75 C-108.67418808 65.83094789 -103.85065942 65.46711141 -97.06401062 65.50616455 C-71.15679167 65.86385112 -71.15679167 65.86385112 -48.68560791 55.14428711 C-39.13486646 43.34000552 -33.46090895 28.31118732 -28.69087219 14.02801514 C-26.48677807 7.59631984 -24.27617922 3.20090388 -18.3125 -0.375 C-12.48282796 -2.31822401 -5.73173933 -2.35687351 0 0 Z M-393.3125 478.625 C-392.3125 480.625 -392.3125 480.625 -392.3125 480.625 Z " fill="#0000ff" transform="translate(410.3125,1.375)"/>
<path d="M0 0 C2.65697305 2.44721202 3.80441519 4.12426399 4.59204102 7.65087891 C3.64506339 13.00784348 -0.01472661 15.73153031 -3.84765625 19.3984375 C-4.6523082 20.19222809 -5.45696014 20.98601868 -6.28599548 21.80386353 C-8.86439815 24.34207435 -11.46249272 26.85894151 -14.0625 29.375 C-16.63318384 31.88802139 -19.19962514 34.4052783 -21.76402283 36.92471313 C-23.36000301 38.48991854 -24.96031934 40.0507193 -26.56568909 41.60629272 C-31.29515959 46.21154815 -35.71236716 50.98308311 -40 56 C-41.45445517 57.60768373 -42.91220895 59.21239715 -44.375 60.8125 C-47.50422827 64.27530082 -50.50500349 67.80679003 -53.4375 71.4375 C-56.64669832 75.37045109 -59.8685358 79.28434232 -63.1875 83.125 C-63.96480469 84.03507812 -64.74210938 84.94515625 -65.54296875 85.8828125 C-68.44541312 88.3838059 -70.20477006 88.85045969 -74 89 C-78.56521739 86.86956522 -78.56521739 86.86956522 -80 84 C-80.34711206 80.13152742 -80.46556596 77.78182162 -78.453125 74.40234375 C-77.36257812 73.18224609 -77.36257812 73.18224609 -76.25 71.9375 C-75.42757812 70.99648438 -74.60515625 70.05546875 -73.7578125 69.0859375 C-73.31083008 68.58803711 -72.86384766 68.09013672 -72.40332031 67.57714844 C-70.94705936 65.94050164 -69.52902474 64.27663968 -68.1171875 62.6015625 C-62.45497262 55.89275504 -56.6442156 49.3443188 -50.66796875 42.9140625 C-48.66899933 40.7307079 -46.72293082 38.52721921 -44.79101562 36.28613281 C-41.2285425 32.20991598 -37.49942072 28.33821232 -33.67578125 24.5078125 C-33.00709518 23.83579803 -32.33840912 23.16378357 -31.64945984 22.47140503 C-30.24995052 21.06687625 -28.84912376 19.66365906 -27.44702148 18.26171875 C-25.30228382 16.11477331 -23.16569982 13.95992308 -21.02929688 11.8046875 C-19.66194757 10.43440747 -18.29412577 9.06459873 -16.92578125 7.6953125 C-15.9725573 6.73131027 -15.9725573 6.73131027 -15.00007629 5.74783325 C-14.40232895 5.15316254 -13.8045816 4.55849182 -13.1887207 3.94580078 C-12.66800491 3.42365997 -12.14728912 2.90151917 -11.61079407 2.36355591 C-7.71041915 -0.93815681 -4.9371924 -1.54287263 0 0 Z " fill="#0000ff" transform="translate(222,259)"/>
<path d="M0 0 C2.9236459 2.5488195 3.84909176 4.19515606 4.5625 8 C3.97461863 11.13536728 3.17888394 12.58202156 0.8762207 14.75976562 C-3.43067265 17.60674263 -8.74444231 18.48569097 -13.6875 19.75 C-16.23216972 20.44111029 -18.77517349 21.13639032 -21.31640625 21.83984375 C-22.28365631 22.10603767 -22.28365631 22.10603767 -23.27044678 22.37760925 C-44.6706168 28.31797812 -65.79608142 36.47523926 -85.71875 46.2890625 C-86.74609253 46.79252197 -86.74609253 46.79252197 -87.79418945 47.30615234 C-89.52291711 48.16795262 -91.23695641 49.05905748 -92.94921875 49.953125 C-96.72047715 51.2472316 -99.15525462 50.92627643 -103 50 C-105.562964 47.76774103 -105.93752331 46.41948631 -106.4375 43.0625 C-105.88860521 39.22023646 -104.61784784 37.82973703 -102 35 C-99.57177734 33.48950195 -99.57177734 33.48950195 -96.8359375 32.23828125 C-95.81024658 31.76438965 -94.78455566 31.29049805 -93.7277832 30.80224609 C-92.62136475 30.31062988 -91.51494629 29.81901367 -90.375 29.3125 C-89.21637451 28.78994629 -88.05774902 28.26739258 -86.86401367 27.72900391 C-69.47619099 19.98462031 -51.72521547 13.42224875 -33.625 7.5625 C-32.97850494 7.3527655 -32.33200989 7.14303101 -31.66592407 6.92694092 C-6.73350095 -1.12225016 -6.73350095 -1.12225016 0 0 Z " fill="#0000ff" transform="translate(269,99)"/>
<path d="M0 0 C2.4375 1.5 2.4375 1.5 4 4 C4.93889349 11.40682644 2.60990559 14.9907185 -1.75 20.8125 C-2.95465553 22.4966754 -4.15640737 24.18293098 -5.35546875 25.87109375 C-5.96696777 26.72429199 -6.5784668 27.57749023 -7.20849609 28.45654297 C-18.00395948 43.78321748 -27.18489216 60.28653846 -36.12890625 76.73828125 C-36.63220459 77.66261963 -37.13550293 78.58695801 -37.65405273 79.53930664 C-38.61638246 81.31270863 -39.5731605 83.08913732 -40.52368164 84.86889648 C-40.95156982 85.65981689 -41.37945801 86.4507373 -41.8203125 87.265625 C-42.19430176 87.96461914 -42.56829102 88.66361328 -42.95361328 89.38378906 C-44 91 -44 91 -46 92 C-52.16562108 92.57089084 -52.16562108 92.57089084 -55.375 90.375 C-57.44136617 87.35492637 -57.83494861 85.67768358 -58 82 C-57.03551226 78.92237892 -55.57067624 76.15621955 -54.0625 73.3125 C-53.61358398 72.44584717 -53.16466797 71.57919434 -52.70214844 70.6862793 C-42.9224677 52.11369347 -31.78753253 34.41012634 -20.1875 16.9375 C-19.70156372 16.20278473 -19.21562744 15.46806946 -18.71496582 14.71109009 C-17.33134329 12.62419547 -15.93902424 10.54343616 -14.54296875 8.46484375 C-14.12800644 7.83905426 -13.71304413 7.21326477 -13.2855072 6.56851196 C-9.4709886 0.93836207 -6.88267106 -0.72449169 0 0 Z " fill="#0000ff" transform="translate(129,364)"/>
<path d="M0 0 C1.9375 1.0625 1.9375 1.0625 3 3 C4.39894283 8.91860428 4.39894283 8.91860428 3.24145508 12.05615234 C1.82169942 14.27917978 0.54566184 15.25856577 -1.67578125 16.6640625 C-2.41554199 17.14182129 -3.15530273 17.61958008 -3.91748047 18.11181641 C-4.70783691 18.61116699 -5.49819336 19.11051758 -6.3125 19.625 C-13.28286457 24.13392409 -19.91275916 28.86057515 -26.3984375 34.0390625 C-31.75454956 38.07625207 -31.75454956 38.07625207 -36.0625 37.8125 C-40.33361995 36.6311264 -40.33361995 36.6311264 -42 34 C-43 30.6875 -43 30.6875 -43 27 C-39.21012179 21.50697814 -34.25362963 17.92345761 -28.875 14.0625 C-28.02768311 13.45003418 -27.18036621 12.83756836 -26.30737305 12.20654297 C-23.8786965 10.46079383 -21.44023825 8.72953002 -19 7 C-18.09483643 6.34475342 -18.09483643 6.34475342 -17.17138672 5.67626953 C-11.3849304 1.50123143 -7.25007867 -1.29465691 0 0 Z " fill="#0000ff" transform="translate(138,155)"/>
<path d="M0 0 C2.75806231 2.39032067 2.98155872 3.85246979 3.4375 7.5 C3 11 3 11 1.5 13.4375 C-2.24892004 15.78057502 -4.61035762 15.48773804 -9 15 C-11.20066025 13.40813918 -11.90197996 12.53046141 -12.3984375 9.84375 C-12.39070313 9.0703125 -12.38296875 8.296875 -12.375 7.5 C-12.38273437 6.7265625 -12.39046875 5.953125 -12.3984375 5.15625 C-11.9056562 2.48943358 -11.1276451 1.63818683 -9 0 C-5.4314543 -1.18951523 -3.60804584 -0.97717908 0 0 Z " fill="#0000ff" transform="translate(461,35)"/>
<path d="M0 0 C2.9375 0.5625 2.9375 0.5625 5.3125 2.0625 C7.59166433 5.56890667 7.75503559 8.49150647 6.9375 12.5625 C5.3125 15.0625 5.3125 15.0625 2.9375 16.5625 C0 17.125 0 17.125 -3.0625 16.5625 C-6.38524404 14.10655875 -7.83868008 12.6368356 -8.6875 8.5625 C-7.63783559 3.52411085 -5.07009643 0.9312422 0 0 Z " fill="#0000ff" transform="translate(401.0625,201.4375)"/>
<path d="M0 0 C2.4375 1.5 2.4375 1.5 4 4 C4.62026592 7.50309274 4.69366901 10.73507415 2.9375 13.9375 C-0.15079941 15.63108355 -2.48044581 16 -6 16 C-8.9375 14 -8.9375 14 -11 11 C-11.63007693 7.00951279 -11.63021887 4.98314143 -9.4375 1.5625 C-6.05782196 -0.60396028 -3.94016013 -0.56288002 0 0 Z " fill="#0000ff" transform="translate(492,137)"/>
<path d="M0 0 C2.75806231 2.39032067 2.98155872 3.85246979 3.4375 7.5 C3 11 3 11 1.5 13.4375 C-2.27828899 15.79893062 -4.57790439 15.56153595 -9 15 C-11 13.5 -11 13.5 -12 11 C-12.50396257 7.42186574 -12.79396117 4.17203792 -10.6875 1.0625 C-6.90426416 -1.31953738 -4.20020464 -1.13755542 0 0 Z " fill="#0000ff" transform="translate(349,34)"/>
</svg>
